<?xml version="1.0" encoding="UTF-8" standalone="no"?>
<svg width="28px" height="35px" viewBox="0 0 28 35" version="1.1" xmlns="http://www.w3.org/2000/svg" xmlns:xlink="http://www.w3.org/1999/xlink" xmlns:sketch="http://www.bohemiancoding.com/sketch/ns">
    <!-- Generator: Sketch 3.3.2 (12043) - http://www.bohemiancoding.com/sketch -->
    <title>Imported Layers</title>
    <desc>Created with Sketch.</desc>
    <defs></defs>
    <g id="Page-1" stroke="none" stroke-width="1" fill="none" fill-rule="evenodd" sketch:type="MSPage">
        <g id="Home-Page" sketch:type="MSArtboardGroup" transform="translate(-233.000000, -1323.000000)">
            <g id="About" sketch:type="MSLayerGroup" transform="translate(137.000000, 912.000000)">
                <g id="Icons" transform="translate(0.000000, 411.000000)" sketch:type="MSShapeGroup">
                    <g id="Imported-Layers" transform="translate(96.504348, 0.898438)">
                        <path d="M5.67340239,26.8307012 C4.28453989,24.7838446 4.01370107,18.1291463 7.25446881,14.035433 C8.86037429,12.0714081 9.27001966,10.7027113 9.39660592,8.86517837 C9.4828121,6.77017319 7.94969704,0.515624529 13.7318866,0.0391716867 C19.5884605,-0.439321348 19.2739209,5.4803638 19.2401822,8.61301064 C19.2121553,11.2580516 21.1368509,12.7573207 22.4533215,14.8188667 C24.8900739,18.6066872 24.6839229,25.128501 21.9943965,28.6585773 C18.5875922,33.0776332 15.6697323,31.1612128 13.7318866,31.322116 C10.1032575,31.5254551 9.98331267,33.5066176 5.67340239,26.8307012" id="Fill-1" fill="#F24747"></path>
                        <path d="M19.8199819,15.2059591 C20.8257648,16.1539684 23.4432978,20.421098 19.3042059,23.0757958 C17.8450767,24.0002748 20.6051355,27.5416402 21.9303728,25.8262467 C24.2690972,22.7469169 22.7776905,17.8427033 21.3747481,16.0855539 C20.421964,14.8398127 18.9652257,14.3572393 19.8199819,15.2059591" id="Fill-2" fill="#FCFAFA"></path>
                        <path d="M12.297995,6.76949313 C12.35551,7.79176534 11.8778561,8.65163827 11.2311105,8.69026591 C10.5844978,8.72875753 10.0135977,7.93117846 9.9562155,6.90890625 C9.95608267,6.90863422 9.95608267,6.90849821 9.95608267,6.9083622 C9.89870044,5.88595397 10.3763544,5.02608104 11.0230999,4.98758942 C11.6697127,4.9490978 12.2404799,5.74654085 12.297995,6.76894908 L12.297995,6.76949313" id="Fill-3" fill="#FFFFFF"></path>
                        <path d="M13.4718069,6.84770049 C13.4951849,8.03060382 14.2419509,8.96922816 15.1397437,8.94420181 C16.0374037,8.91917545 16.7461805,7.94015531 16.7226697,6.75738799 L16.7226697,6.75670793 C16.6992917,5.57394061 15.9525258,4.63531627 15.054733,4.66020661 C14.1569401,4.68523296 13.4482962,5.66425311 13.4716741,6.84715644 C13.4718069,6.84729245 13.4718069,6.84756448 13.4718069,6.84770049" id="Fill-4" fill="#FFFFFF"></path>
                        <path d="M14.2155178,7.11510166 C14.2018364,7.76442677 14.5216892,8.29161239 14.9297406,8.29256448 C15.3379249,8.29351657 15.6798273,7.7679631 15.6933759,7.118774 L15.6933759,7.11836596 C15.7070573,6.46917686 15.3872045,5.94199125 14.9791531,5.94103916 C14.5709689,5.93995105 14.2291992,6.46550452 14.2155178,7.11482963 L14.2155178,7.11510166" id="Fill-5" fill="#F24747"></path>
                        <path d="M11.6286684,7.12203831 C11.6798077,7.65942489 11.4824234,8.12499671 11.1878082,8.16172016 C10.8931929,8.19857963 10.6127904,7.79271743 10.5615183,7.25519484 L10.5615183,7.25505883 C10.5102463,6.71740023 10.7076305,6.25196442 11.0022457,6.21510495 C11.2969938,6.17838149 11.5773963,6.58424369 11.6285356,7.12163027 C11.6285356,7.12176628 11.6285356,7.1219023 11.6286684,7.12203831" id="Fill-6" fill="#F24747"></path>
                        <path d="M7.84927813,18.1030318 C8.64558941,16.2543458 10.3378339,13.0069042 10.3738306,10.4956998 C10.3738306,8.49848786 16.2163246,8.02149096 16.685079,10.0157107 C17.1539662,12.0097943 18.3439834,15.0011239 19.1013757,16.4413634 C19.858768,17.881467 22.0673197,22.4565296 19.7145154,26.4490493 C17.5956234,29.983614 11.170806,32.7800372 7.74115514,25.9689241 C6.58713472,23.6054297 6.79288721,20.676666 7.84927813,18.1030318" id="Fill-7" fill="#FFFFFF"></path>
                        <path d="M7.12934367,16.7312067 C6.44899231,18.0498508 5.03316547,21.5179052 8.4838034,23.4152838 C12.1985059,25.4297694 12.1805739,29.5757116 7.72202773,27.6031179 C3.64589691,25.8199901 5.44785835,18.614984 6.5879317,16.8911578 C7.33536181,15.6836361 8.45644058,14.205721 7.12934367,16.7312067" id="Fill-8" fill="#F24747"></path>
                        <path d="M7.71352665,15.236562 C6.63003856,17.0475725 4.03003907,21.3228629 7.50950095,23.5404156 C12.1974432,26.4849567 10.8702135,29.4296338 6.59151808,26.7784723 C0.567313674,23.077428 5.85790221,15.6228384 8.27459735,12.782075 C11.031601,9.59325489 8.80525016,13.3593133 7.71352665,15.236562" id="Fill-9" fill="#F24747"></path>
                        <path d="M5.50510775,32.2098715 C2.99636194,30.8494715 -0.651925898,32.4718322 0.67251443,28.7754123 C0.937774417,27.9345811 0.27694896,26.6786389 0.708511153,25.8580737 C1.21339509,24.8609639 2.29542205,25.0825287 2.94455854,24.4178341 C3.58466263,23.725937 3.99045595,22.5344649 5.18060592,22.7191703 C6.37075589,22.9037396 7.16228532,24.4000165 7.99353069,26.2273485 C8.60667045,27.5383758 10.7814836,29.3821654 10.6393563,30.8490634 C10.4721243,33.1041557 7.97015274,33.5291957 5.50510775,32.2098715" id="Fill-10" fill="#FFFFFF"></path>
                        <path d="M8.16700567,33.3510189 C7.27253359,33.3510189 6.28986289,33.0781772 5.32538979,32.5620087 C4.5208431,32.1258156 3.55464323,32.0164613 2.70227801,31.9200282 C1.61002319,31.7965286 0.666802773,31.6898946 0.223950095,30.9578737 C-0.0952385633,30.43028 -0.069336862,29.6958109 0.305241588,28.6467442 C0.395034152,28.3530925 0.332073094,27.9415178 0.265392817,27.5058688 C0.174006301,26.9093166 0.0705323251,26.233333 0.366874354,25.669832 C0.727505734,24.9572609 1.34542735,24.7415446 1.84181021,24.5681283 C2.17348481,24.4522454 2.45999748,24.35214 2.67026616,24.1368317 C2.80615047,23.9896659 2.94123781,23.799928 3.08416207,23.5990371 C3.49513573,23.0213907 4.00666112,22.3025631 4.94031783,22.3025631 C5.03701752,22.3025631 5.13743642,22.3105878 5.2386523,22.3262293 C6.63814115,22.5434417 7.50671153,24.2161272 8.34526251,26.0596447 C8.54583466,26.488357 8.95587851,27.0120063 9.38996446,27.5662585 C10.2463146,28.6596654 11.1318871,29.7903398 11.025358,30.8883711 C10.9132502,32.4038258 9.81754178,33.3510189 8.16700567,33.3510189 L8.16700567,33.3510189 Z M4.94031783,23.0972859 C4.437692,23.0972859 4.14068582,23.4635683 3.71138173,24.0669211 C3.56022205,24.2793731 3.40401487,24.4991698 3.22628935,24.6910839 C2.88119899,25.0445811 2.46212275,25.1910669 2.09232615,25.3201431 C1.6345966,25.4800941 1.27303541,25.60645 1.05293737,26.0410109 C0.877602773,26.3745143 0.952651292,26.8642964 1.03208318,27.3829132 C1.1103196,27.8943213 1.19134543,28.4234111 1.04164688,28.8975518 L1.0367322,28.9122412 C0.755931191,29.6958109 0.704526276,30.2432624 0.883712917,30.5394983 C1.12745457,30.9425042 1.89666868,31.0294164 2.78742155,31.1302019 C3.70885797,31.2343877 4.75329427,31.3525828 5.68681815,31.8586865 C6.52669742,32.3082088 7.40815224,32.5562961 8.16700567,32.5562961 C8.75530636,32.5562961 10.1361991,32.3870962 10.2524247,30.8190046 C10.3282702,30.0344828 9.50818248,28.9873202 8.78466163,28.0633853 C8.3216189,27.4724096 7.88447788,26.9140771 7.64352565,26.3989966 C6.89582987,24.7551459 6.14189112,23.2701581 5.12255955,23.1119752 C5.05959849,23.1021823 4.99823138,23.0972859 4.94031783,23.0972859 L4.94031783,23.0972859 Z" id="Fill-11" fill="#F24747"></path>
                        <path d="M22.9147703,31.5756438 C24.7549865,29.2906288 28.8398841,29.7593289 26.0850057,26.62641 C25.502151,25.9547788 25.6760244,24.4986258 24.9680446,23.8835759 C24.1257744,23.1293849 23.1966339,23.7478351 22.3429404,23.353398 C21.4876529,22.9306702 20.5937122,22.1087448 19.5498072,22.6933278 C18.5059022,23.2779109 18.3935287,24.798806 18.2951022,26.7897614 C18.2087632,28.2238804 16.9325399,30.6219221 17.6101018,31.9397501 C18.6037974,33.9830704 21.1602289,33.7124049 22.9147703,31.5756438" id="Fill-12" fill="#FFFFFF"></path>
                        <path d="M19.7562238,33.7315827 L19.7559582,33.7315827 C18.6706105,33.7314467 17.7617928,33.1429193 17.2627534,32.1168388 C16.7578694,31.1349623 17.1618032,29.7296781 17.5183168,28.4896494 C17.7041449,27.8431805 17.8796124,27.2327551 17.9077721,26.7652791 C18.0019481,24.8605558 18.0910765,23.0572981 19.3635806,22.344727 C19.6617822,22.1777033 19.9760562,22.0931034 20.297503,22.0931034 C20.9390682,22.0931034 21.5094369,22.4255186 22.0127269,22.7190343 C22.186866,22.8204998 22.3511758,22.9163888 22.5115007,22.9955483 C22.6704973,23.0688592 22.8592476,23.1020463 23.1334072,23.1020463 C23.2363498,23.1020463 23.339691,23.0976939 23.443165,23.0936135 C23.5569996,23.0889891 23.6709671,23.0846367 23.7845361,23.0846367 C24.2199503,23.0846367 24.7314757,23.1439383 25.2234752,23.5843477 C25.6960817,23.9949704 25.8447176,24.6638813 25.9759529,25.2540409 C26.0757076,25.7024751 26.1698836,26.1260189 26.3751047,26.3624092 C27.1756665,27.2730149 27.4944567,27.9844978 27.3763715,28.5994117 C27.2229537,29.3984869 26.421595,29.7942842 25.4937827,30.2526473 C24.707168,30.6412359 23.8154853,31.0817813 23.2141674,31.8284916 C22.2202062,33.0390056 20.9607193,33.7315827 19.7562238,33.7315827 L19.7562238,33.7315827 Z M20.297503,22.8876901 C20.1050334,22.8876901 19.9213306,22.9381509 19.7359009,23.0419287 C18.9062495,23.5065484 18.7801946,24.8355295 18.6825651,26.8098913 C18.6489593,27.3710801 18.4612716,28.0233975 18.2628247,28.7140705 C17.9480194,29.8089736 17.5912401,31.0500904 17.9534654,31.7546367 C18.3256529,32.5198447 18.9644287,32.9368599 19.756091,32.9368599 L19.7562238,32.9368599 C20.716712,32.936996 21.7863859,32.3324191 22.6177641,31.3199398 C23.3250798,30.4417051 24.3405593,29.9400899 25.1566621,29.5369479 C25.8969195,29.1712095 26.5362266,28.8553878 26.6148615,28.4461253 C26.6800807,28.1066373 26.4047256,27.5838041 25.7966334,26.892179 C25.4573875,26.5014143 25.3363801,25.956955 25.2192247,25.4304495 C25.1048587,24.915777 24.9967357,24.4295313 24.7169974,24.1864764 C24.4314145,23.9307723 24.1382604,23.8792235 23.7845361,23.8792235 C23.6810621,23.8792235 23.5773225,23.8834399 23.4735829,23.8876562 C23.3600139,23.8922807 23.2464449,23.8966331 23.1334072,23.8966331 C22.8735932,23.8966331 22.5307609,23.8760952 22.1832796,23.7156001 C21.9901459,23.6202551 21.8064431,23.513213 21.6287176,23.4095713 C21.1886543,23.1530511 20.7335813,22.8876901 20.297503,22.8876901 L20.297503,22.8876901 Z" id="Fill-13" fill="#F24747"></path>
                        <path d="M23.7918417,23.534839 C23.4063713,24.2748847 21.8173351,25.4494912 20.7584204,25.1433264 C19.6778546,24.8430102 19.1911682,23.1682845 19.4027652,21.9007812 C19.5992197,20.4733269 20.7584204,20.4024642 22.2118379,21.1064665 C23.7747067,21.8859559 24.2471803,22.5539147 23.7918417,23.534839" id="Fill-14" fill="#F24747"></path>
                        <path d="M11.0288116,8.18620247 C11.4720628,7.75612999 12.567904,6.46686465 14.6243662,7.82060006 C15.0066488,8.07535203 15.316805,8.09874623 16.0525462,8.42123259 C17.5242941,9.04049887 16.8205648,10.5339194 15.2619466,11.0325424 C14.5944796,11.2541072 13.9879813,12.0841933 12.772461,12.0131947 C11.7344005,11.9511728 11.4623662,11.2590037 10.8246531,10.8758556 C9.691354,10.220818 9.52412199,9.3351026 10.1360663,8.86517837 C10.7481434,8.39511813 10.9875017,8.22619023 11.0288116,8.18620247" id="Fill-15" fill="#FFFFFF"></path>
                        <path d="M12.9181747,12.1320698 C12.8684965,12.1320698 12.8178886,12.1307097 12.7660852,12.1275814 C12.0266248,12.0835133 11.6549686,11.7365446 11.2953999,11.401137 C11.1259098,11.2429542 10.9657177,11.0934761 10.7680678,10.9747369 C10.1059141,10.5919969 9.70742634,10.0901097 9.6763443,9.59842338 C9.65588859,9.27661709 9.79535929,8.98364552 10.0689875,8.77336973 C10.3941535,8.52378624 10.6143844,8.35880271 10.7555819,8.25312076 C10.8610483,8.17409733 10.9371594,8.11697195 10.9517706,8.10309864 C10.9758127,8.07970444 11.0018473,8.053726 11.0298742,8.02584337 C11.3535791,7.70349303 11.9560925,7.10340456 12.9047589,7.10340456 C13.4602508,7.10340456 14.059045,7.31232022 14.6849364,7.72430299 C14.8958692,7.86480422 15.0867448,7.93226657 15.351075,8.02570736 C15.5440759,8.09398579 15.7842311,8.17899379 16.0965127,8.31595868 C16.6810941,8.56173381 16.9921802,8.96705196 16.9714589,9.45642602 C16.9422364,10.1424746 16.2529855,10.8355958 15.2952867,11.1418966 C15.0880731,11.2107191 14.8760776,11.3497242 14.6515962,11.496754 C14.1970546,11.7946221 13.6819428,12.1320698 12.9181747,12.1320698 L12.9181747,12.1320698 Z M12.9047589,7.33272214 C12.0469477,7.33272214 11.5079267,7.86942865 11.1858158,8.19014684 C11.1571246,8.21884554 11.130426,8.24550405 11.1057197,8.2694423 C11.0823418,8.29202043 11.0346561,8.32806382 10.8877469,8.43809817 C10.746948,8.54350809 10.5275141,8.70794757 10.2032779,8.956851 C9.98915715,9.12142649 9.88408922,9.33809488 9.89963025,9.58359799 C9.92579761,9.99653285 10.2829754,10.4310938 10.8796444,10.7760222 C11.0992111,10.9079546 11.2756083,11.0725301 11.4461611,11.2316651 C11.7920484,11.5545595 12.1188083,11.8593642 12.7789696,11.8988079 C13.5505747,11.9443722 14.0743204,11.602844 14.5308544,11.3036159 C14.7678218,11.1484253 14.9916391,11.0018035 15.227411,10.9234601 C16.0840267,10.6493943 16.7229353,10.0283598 16.7477744,9.44649708 C16.7641124,9.06076478 16.5021732,8.73433405 16.009908,8.52718656 C15.703471,8.39280591 15.4773956,8.3129664 15.2780189,8.24251177 C15.0091725,8.1473028 14.7967786,8.07222374 14.5633976,7.91676111 C13.9748313,7.52926064 13.41655,7.33272214 12.9047589,7.33272214 L12.9047589,7.33272214 Z" id="Fill-16" fill="#F24747"></path>
                        <path d="M12.718001,10.8675588 C11.6782137,10.8675588 10.9394175,10.1563479 10.5426566,9.77442395 C10.4308144,9.66670181 10.3040953,9.54469832 10.263848,9.53789768 L10.2657076,9.38515531 C10.3561643,9.38515531 10.4587085,9.48376459 10.6448023,9.66302946 C11.053385,10.0563785 11.7373227,10.7146804 12.718001,10.7146804 C13.5617323,10.7146804 14.3815544,10.2092569 15.0403874,9.80312265 C15.4719496,9.53708161 15.8129222,9.32680582 16.0675559,9.31143637 L16.0764555,9.46417875 C15.8584827,9.47723598 15.5149863,9.68887189 15.1172955,9.93410297 C14.4426558,10.3498941 13.603175,10.8675588 12.718001,10.8675588" id="Fill-17" fill="#F24747"></path>
                    </g>
                </g>
            </g>
        </g>
    </g>
</svg>