<?xml version="1.0" encoding="utf-8"?>
<!-- Generator: Adobe Illustrator 20.0.0, SVG Export Plug-In . SVG Version: 6.00 Build 0)  -->
<!DOCTYPE svg PUBLIC "-//W3C//DTD SVG 1.1//EN" "http://www.w3.org/Graphics/SVG/1.1/DTD/svg11.dtd">
<svg version="1.1" id="Magnifying_glass" xmlns="http://www.w3.org/2000/svg" xmlns:xlink="http://www.w3.org/1999/xlink" x="0px"
	 y="0px" viewBox="0 0 20 20" style="enable-background:new 0 0 20 20;" xml:space="preserve">
<style type="text/css">
	.st0{fill:#D9D9D9;}
</style>
<path class="st0" d="M17.5,15.5l-3.8-3.8c0.6-0.9,0.9-2,0.9-3.2c0-3.4-3-6.4-6.4-6.4c-3.4,0-6.2,2.8-6.2,6.2c0,3.4,3,6.4,6.4,6.4
	c1.1,0,2.2-0.3,3.1-0.8l3.8,3.8c0.4,0.4,1,0.4,1.3,0l0.9-0.9C18.1,16.3,17.9,15.8,17.5,15.5z M4,8.3C4,5.9,5.9,4,8.3,4
	c2.4,0,4.5,2.1,4.5,4.5c0,2.4-1.9,4.3-4.3,4.3C6.1,12.8,4,10.7,4,8.3z"/>
</svg>
