<?xml version="1.0" encoding="utf-8"?>
<!DOCTYPE svg PUBLIC "-//W3C//DTD SVG 1.1//EN" "http://www.w3.org/Graphics/SVG/1.1/DTD/svg11.dtd">
<svg xmlns="http://www.w3.org/2000/svg" xmlns:xlink="http://www.w3.org/1999/xlink" style="display: none">
    <symbol id="svg-merge" viewBox="0 0 20 20">
  <path d="M17.89 17.707L16.892 20c-3.137-1.366-5.496-3.152-6.892-5.275-1.396 2.123-3.755 3.91-6.892 5.275l-.998-2.293C5.14 16.39 8.55 14.102 8.55 10V7H5.5L10 0l4.5 7h-3.05v3c0 4.102 3.41 6.39 6.44 7.707z"/>
</symbol>
<symbol id="svg-text" viewBox="0 0 20 20">
  <path fill-rule="evenodd" clip-rule="evenodd" d="M15.5 11h-11c-.275 0-.5.225-.5.5v1c0 .276.225.5.5.5h11c.276 0 .5-.224.5-.5v-1c0-.275-.224-.5-.5-.5zm0-4h-11c-.275 0-.5.225-.5.5v1c0 .276.225.5.5.5h11c.276 0 .5-.224.5-.5v-1c0-.275-.224-.5-.5-.5zm-5 8h-6c-.275 0-.5.225-.5.5v1c0 .276.225.5.5.5h6c.276 0 .5-.224.5-.5v-1c0-.275-.224-.5-.5-.5zm5-12h-11c-.275 0-.5.225-.5.5v1c0 .276.225.5.5.5h11c.276 0 .5-.224.5-.5v-1c0-.275-.224-.5-.5-.5z"/>
</symbol>
<symbol id="svg-list" viewBox="0 0 20 20">
  <path d="M14.4 9H8.6c-.552 0-.6.447-.6 1s.048 1 .6 1h5.8c.552 0 .6-.447.6-1s-.048-1-.6-1zm2 5H8.6c-.552 0-.6.447-.6 1s.048 1 .6 1h7.8c.552 0 .6-.447.6-1s-.048-1-.6-1zM8.6 6h7.8c.552 0 .6-.447.6-1s-.048-1-.6-1H8.6c-.552 0-.6.447-.6 1s.048 1 .6 1zM5.4 9H3.6c-.552 0-.6.447-.6 1s.048 1 .6 1h1.8c.552 0 .6-.447.6-1s-.048-1-.6-1zm0 5H3.6c-.552 0-.6.447-.6 1s.048 1 .6 1h1.8c.552 0 .6-.447.6-1s-.048-1-.6-1zm0-10H3.6c-.552 0-.6.447-.6 1s.048 1 .6 1h1.8c.552 0 .6-.447.6-1s-.048-1-.6-1z"/>
</symbol>
<symbol id="svg-block" viewBox="0 0 20 20">
  <path d="M10 .4C4.697.4.4 4.698.4 10c0 5.303 4.297 9.6 9.6 9.6 5.3 0 9.6-4.297 9.6-9.6 0-5.302-4.3-9.6-9.6-9.6zM2.4 10c0-4.197 3.4-7.6 7.6-7.6 1.828 0 3.505.647 4.816 1.723L4.122 14.817C3.046 13.505 2.4 11.83 2.4 10zm7.6 7.6c-1.83 0-3.506-.647-4.816-1.723L15.878 5.184C16.953 6.496 17.6 8.17 17.6 10c0 4.197-3.404 7.6-7.6 7.6z"/>
</symbol>
<symbol id="svg-tablet" viewBox="0 0 20 20">
  <path d="M16 0H4C2.9 0 2 .9 2 2v16c0 1.1.9 2 2 2h12c1.1 0 2-.9 2-2V2c0-1.1-.9-2-2-2zm-6 19c-.69 0-1.25-.447-1.25-1s.56-1 1.25-1 1.25.447 1.25 1-.56 1-1.25 1zm6-3H4V2h12v14z"/>
</symbol>
<symbol id="svg-network" viewBox="0 0 20 20">
  <path d="M5.274 6.915c.2 0 .394.03.576.086.69-.772 1.455-1.476 2.283-2.1-.035-.145-.054-.298-.054-.454 0-.217.035-.426.1-.62C7.253 3.16 6.245 2.6 5.17 2.17c-1.005.622-1.882 1.432-2.582 2.382.52.92 1.136 1.777 1.838 2.557.256-.125.543-.195.848-.195zM3.316 8.872c0-.275.058-.537.16-.773-.63-.693-1.198-1.437-1.696-2.23C1.155 7.112.8 8.515.8 10c0 1.72.474 3.33 1.295 4.706.294-1.654.85-3.22 1.62-4.652-.25-.328-.4-.74-.4-1.182zm6.72-6.383c.517 0 .985.2 1.336.528 1.02-.44 2.096-.777 3.215-.992C13.237 1.246 11.67.8 10 .8c-1.14 0-2.23.21-3.236.588.8.395 1.56.855 2.277 1.375.293-.174.632-.274.996-.274zm2.926 9.218c.122-.254.295-.48.51-.656-.58-1.777-1.494-3.404-2.673-4.803-.235.1-.493.153-.765.153-.425 0-.816-.137-1.137-.365-.71.54-1.367 1.143-1.964 1.803.188.3.297.653.297 1.032 0 .203-.03.4-.09.586 1.718 1.146 3.695 1.934 5.822 2.25zm2.54 2.643c.025.372.04.745.04 1.122 0 .664-.042 1.318-.122 1.96 1.56-1.138 2.748-2.757 3.347-4.638-.71.172-1.438.295-2.18.365-.174.536-.573.968-1.086 1.19zm-2.998-1.326c-2.272-.377-4.377-1.244-6.21-2.484-.298.182-.647.29-1.02.29-.14 0-.273-.015-.403-.042-.876 1.662-1.437 3.517-1.598 5.484.876.94 1.944 1.697 3.145 2.205 1.492-2.293 3.576-4.19 6.087-5.453zm3.672-9.843c-1.475.144-2.883.515-4.193 1.07.006.065.01.13.01.196 0 .31-.074.6-.2.86 1.31 1.538 2.326 3.33 2.968 5.29.798.016 1.478.502 1.77 1.195.887-.09 1.75-.26 2.58-.503.06-.42.09-.85.09-1.287 0-2.704-1.166-5.136-3.024-6.82zM13.49 14.07c-2.345 1.097-4.305 2.788-5.724 4.855.715.18 1.463.275 2.234.275 1.387 0 2.702-.31 3.882-.86.19-.927.29-1.886.29-2.868 0-.355-.016-.707-.043-1.055-.237-.076-.454-.193-.64-.348z"/>
</symbol>
<symbol id="svg-tv" viewBox="0 0 20 20">
  <path d="M18 1H2C.9 1 0 1.9 0 3v11c0 1.1.882 2.178 1.96 2.393l4.373.875S2.57 19 5 19h10c2.43 0-1.334-1.732-1.334-1.732l4.373-.875C19.116 16.178 20 15.1 20 14V3c0-1.1-.9-2-2-2zm0 13H2V3h16v11z"/>
</symbol>
<symbol id="svg-browser" viewBox="0 0 20 20">
  <path d="M18 2H2C.9 2 0 2.9 0 4v12c0 1.1.9 2 2 2h16c1.1 0 2-.9 2-2V4c0-1.1-.9-2-2-2zM4.5 3.75c.414 0 .75.336.75.75s-.336.75-.75.75-.75-.336-.75-.75.336-.75.75-.75zm-2.75.75c0-.414.336-.75.75-.75s.75.336.75.75-.336.75-.75.75-.75-.336-.75-.75zM18 16H2V7h16v9zm0-11H6V4h12.02L18 5z"/>
</symbol>
<symbol id="svg-back-in-time" viewBox="0 0 20 20">
  <path d="M11 1.8c-4.445 0-8.06 3.56-8.17 7.995V10H.46l3.593 3.894L7.547 10H4.875v-.205C4.982 6.492 7.683 3.85 11 3.85c3.386 0 6.13 2.754 6.13 6.15 0 3.396-2.744 6.15-6.13 6.15-1.357 0-2.61-.445-3.627-1.193L5.967 16.46C7.355 17.55 9.102 18.2 11 18.2c4.515 0 8.174-3.67 8.174-8.2S15.514 1.8 11 1.8zM10 5v5c0 .13.027.26.077.382s.124.233.216.325l3.2 3.2c.283-.183.55-.39.787-.628L12 11V5h-2z"/>
</symbol>
<symbol id="svg-book" viewBox="0 0 20 20">
  <path d="M17 5.95V16.3c0 .523-.452.772-1 1.16-.44.314-1-.074-1-.586V6.76c0-.21-.074-.412-.314-.535-.24-.123-7.738-4.065-7.738-4.065-.12-.045-.65-.378-1.353-.016-.67.344-1.033.718-1.126.894l8.18 4.482c.216.114.35.29.35.516v10.802c0 .23-.142.476-.37.585-.103.052-.218.077-.332.077-.135 0-.27-.033-.386-.104-.215-.13-7.774-4.766-8.273-5.067-.24-.145-.522-.44-.528-.66L3 3.386c0-.198-.023-.547.29-1.032C3.985 1.27 6.417.036 7.65.675l8.998 4.555c.217.112.352.336.352.72z"/>
</symbol>
<symbol id="svg-check" viewBox="0 0 20 20">
  <path d="M8.294 16.998c-.435 0-.847-.203-1.11-.553l-3.574-4.72c-.465-.614-.344-1.487.27-1.952.615-.467 1.488-.344 1.953.27l2.35 3.104 5.912-9.492c.407-.652 1.267-.852 1.92-.445.654.406.855 1.266.447 1.92L9.478 16.34c-.242.39-.66.635-1.12.656-.022.002-.042.002-.064.002z"/>
</symbol>
<symbol id="svg-creative-commons-noncommercial-us" viewBox="0 0 20 20">
  <path d="M9.988.4c2.69 0 4.966.928 6.825 2.784C18.67 5.04 19.6 7.312 19.6 10s-.913 4.936-2.74 6.744C14.923 18.648 12.63 19.6 9.99 19.6c-2.61 0-4.862-.944-6.753-2.832C1.345 14.88.4 12.624.4 10s.945-4.896 2.835-6.816C5.078 1.328 7.33.4 9.988.4zM2.56 7.42c-.287.81-.43 1.67-.43 2.58 0 2.128.777 3.968 2.33 5.52 1.555 1.552 3.405 2.328 5.552 2.328s4.013-.784 5.6-2.352c.53-.513.967-1.073 1.31-1.68l-3.618-1.61c-.246 1.216-1.33 2.04-2.643 2.136v1.48h-1.1v-1.48c-1.078-.013-2.12-.453-2.915-1.15l1.322-1.333c.637.598 1.274.868 2.143.868.563 0 1.188-.22 1.188-.955 0-.26-.1-.44-.26-.577l-.915-.407-1.14-.508c-.563-.252-1.04-.464-1.52-.677L2.56 7.42zm7.452-5.292c-2.18 0-4.02.768-5.527 2.304-.41.414-.766.846-1.07 1.297l3.67 1.632c.332-1.017 1.3-1.635 2.474-1.704v-1.48h1.1v1.48c.76.037 1.593.245 2.413.88l-1.26 1.297c-.466-.33-1.054-.563-1.642-.563-.476 0-1.15.148-1.15.747 0 .09.03.17.086.242l1.228.547.83.37c.532.236 1.04.46 1.542.685l4.92 2.19c.162-.644.244-1.33.244-2.055 0-2.192-.77-4.048-2.307-5.568-1.522-1.536-3.372-2.304-5.55-2.304z"/>
</symbol>
<symbol id="svg-logo" viewBox="0 0 72.3 109">
  <path d="M41.3 32.4v75.3c0 .8.8 1.3 1.5.9l28.9-15.7c.3-.2.5-.5.5-.9V49.3c0-.4-.2-.7-.5-.9L42.9 31.5c-.7-.4-1.6.1-1.6.9zM37.2 108V1c0-.7-.7-1.2-1.4-1L.7 13c-.4.2-.7.5-.7 1v81.4c0 .4.3.8.7 1L35.8 109c.7.2 1.4-.3 1.4-1z"/>
</symbol>
<symbol id="svg-github" viewBox="0 0 32 32">
  <path clip-rule="evenodd" d="M16.003 0C7.17 0 .008 7.162.008 15.997c0 7.067 4.582 13.063 10.94 15.18.8.145 1.052-.33 1.052-.753 0-.38.008-1.442 0-2.777-4.45.967-5.37-2.107-5.37-2.107-.728-1.848-1.776-2.34-1.776-2.34-1.452-.992.11-.973.11-.973 1.604.113 2.45 1.65 2.45 1.65 1.427 2.442 3.743 1.736 4.654 1.328.146-1.034.56-1.74 1.017-2.14C9.533 22.663 5.8 21.29 5.8 15.16c0-1.747.622-3.174 1.645-4.292-.165-.404-.715-2.03.157-4.234 0 0 1.343-.43 4.398 1.64 1.276-.354 2.645-.53 4.005-.537 1.36.006 2.727.183 4.005.538 3.055-2.07 4.396-1.64 4.396-1.64.872 2.202.323 3.83.16 4.233 1.022 1.118 1.643 2.545 1.643 4.292 0 6.146-3.74 7.498-7.305 7.893C19.48 23.548 20 24.508 20 26v4.428c0 .428.258.9 1.07.746C27.422 29.054 32 23.062 32 15.997 32 7.162 24.838 0 16.003 0z" fill-rule="evenodd"/>
</symbol>
<symbol id="svg-twitter" viewBox="0 0 273.4 222.2">
  <path d="M273.4 26.3c-10.1 4.5-20.9 7.5-32.2 8.8 11.6-6.9 20.5-17.9 24.7-31-10.9 6.4-22.9 11.1-35.7 13.6C220 6.8 205.4 0 189.3 0c-31 0-56.1 25.1-56.1 56.1 0 4.4.5 8.7 1.5 12.8C88 66.5 46.7 44.2 19 10.3c-4.8 8.3-7.6 17.9-7.6 28.2 0 19.5 9.9 36.6 25 46.7-9.2-.3-17.8-2.8-25.4-7v.7c0 27.2 19.3 49.8 45 55-4.7 1.3-9.7 2-14.8 2-3.6 0-7.1-.4-10.6-1 7.1 22.3 27.9 38.5 52.4 39-19.2 15-43.4 24-69.7 24-4.5 0-9-.3-13.4-.8 24.8 15.9 54.3 25.2 86 25.2 103.2 0 159.6-85.5 159.6-159.6 0-2.4-.1-4.9-.2-7.3 11.1-8 20.6-17.9 28.1-29.1z"/>
</symbol>
<symbol id="svg-circle-play" viewBox="0 0 191.4 191.4">
  <circle fill="none" stroke="#FFF" stroke-width="22" stroke-miterlimit="10" cx="95.7" cy="95.7" r="84.7"/>
  <path d="M87.8 57l46.7 32.6c4.2 3 4.2 9.2 0 12.2l-45.3 31.6c-4.7 3.3-11.1-.1-11.1-5.8V62c0-4.9 5.6-7.9 9.7-5z"/>
</symbol>
<symbol id="svg-apple" viewBox="0 0 56.693 56.693">
  <path d="M41.777 30.517c-.062-6.232 5.082-9.22 5.312-9.372-2.892-4.227-7.396-4.807-9-4.873-3.83-.39-7.476 2.256-9.42 2.256-1.938 0-4.94-2.2-8.116-2.143-4.178.062-8.03 2.43-10.18 6.17-4.338 7.527-1.11 18.682 3.12 24.79 2.066 2.987 4.53 6.347 7.765 6.224 3.116-.124 4.292-2.017 8.06-2.017s4.826 2.016 8.123 1.953c3.352-.06 5.477-3.043 7.527-6.04 2.373-3.47 3.35-6.83 3.408-7-.073-.033-6.534-2.508-6.6-9.95zM35.582 12.23c1.715-2.083 2.877-4.976 2.56-7.856-2.474.1-5.47 1.645-7.247 3.725-1.592 1.845-2.984 4.784-2.61 7.612 2.76.214 5.576-1.405 7.297-3.483z"/>
</symbol>
<symbol id="svg-windows" viewBox="0 0 56.693 56.693">
  <path d="M3.765 46.362L23.6 49.235V30.257H3.766v16.105zm0-18.816H23.6V8.566L3.766 11.44v16.106zm22.547 22.082l26.616 3.855V30.257H26.312v19.37zm0-41.456v19.374h26.616V4.32L26.312 8.17z"/>
</symbol>
<symbol id="svg-linux" viewBox="0 0 28 35">
  <title>Imported Layers</title>
  <g fill="none" fill-rule="evenodd">
    <path d="M6.178 27.73c-1.39-2.048-1.66-8.702 1.58-12.796 1.607-1.964 2.016-3.333 2.143-5.17.087-2.095-1.446-8.35 4.336-8.826 5.857-.48 5.542 5.44 5.51 8.573-.03 2.646 1.895 4.146 3.212 6.207 2.436 3.788 2.23 10.31-.46 13.84-3.406 4.42-6.324 2.503-8.262 2.664-3.628.204-3.748 2.185-8.058-4.49"/>
    <path d="M20.324 16.104c1.006.948 3.624 5.216-.515 7.87-1.46.925 1.3 4.466 2.625 2.75 2.338-3.08.847-7.983-.556-9.74-.954-1.246-2.41-1.728-1.556-.88M12.802 7.668c.058 1.022-.42 1.882-1.067 1.92-.646.04-1.217-.758-1.274-1.78-.057-1.024.42-1.883 1.067-1.922.647-.038 1.218.76 1.275 1.78v.002M13.976 7.746c.024 1.183.77 2.122 1.668 2.097.898-.025 1.607-1.004 1.583-2.187-.023-1.184-.77-2.122-1.668-2.097-.9.024-1.607 1.003-1.584 2.186"/>
    <path d="M14.72 8.014c-.014.65.306 1.176.714 1.177.408.002.75-.524.764-1.173.013-.65-.306-1.177-.714-1.178-.41-.002-.75.524-.764 1.173M12.133 8.02c.05.538-.146 1.003-.44 1.04-.295.037-.576-.37-.627-.906-.05-.538.146-1.004.44-1.04.295-.037.576.37.627.906M8.354 19c.796-1.847 2.488-5.095 2.524-7.606 0-1.997 5.843-2.474 6.31-.48.47 1.994 1.66 4.986 2.418 6.426.757 1.44 2.966 6.015.613 10.007-2.12 3.535-8.545 6.33-11.974-.48-1.155-2.363-.95-5.292.108-7.866"/>
    <path d="M7.634 17.63c-.68 1.318-2.096 4.786 1.354 6.684 3.715 2.014 3.697 6.16-.762 4.188-4.076-1.784-2.274-8.99-1.134-10.712.748-1.208 1.87-2.686.542-.16"/>
    <path d="M8.218 16.135c-1.084 1.81-3.684 6.086-.204 8.304 4.688 2.943 3.36 5.888-.918 3.237-6.024-3.7-.734-11.156 1.683-13.996 2.756-3.188.53.578-.562 2.455"/>
    <path d="M6.01 33.108c-2.51-1.36-6.158.262-4.833-3.434.265-.84-.396-2.097.036-2.917.505-.998 1.587-.776 2.236-1.44.64-.693 1.045-1.884 2.235-1.7 1.19.185 1.982 1.68 2.813 3.51.613 1.31 2.788 3.154 2.646 4.62-.168 2.256-2.67 2.68-5.135 1.36"/>
    <path d="M8.67 34.25c-.893 0-1.876-.273-2.84-.79-.805-.436-1.77-.545-2.623-.642-1.093-.123-2.036-.23-2.48-.962-.318-.527-.292-1.262.083-2.31.09-.294.026-.706-.04-1.142-.092-.596-.195-1.272.1-1.836.362-.712.98-.928 1.476-1.1.332-.117.618-.217.83-.433.134-.147.27-.337.413-.538.41-.577.92-1.296 1.855-1.296.096 0 .197.01.298.025 1.4.217 2.268 1.89 3.107 3.733.2.43.61.952 1.044 1.507.857 1.093 1.742 2.224 1.636 3.322-.112 1.515-1.208 2.462-2.86 2.462zM5.446 23.995c-.503 0-.8.366-1.23.97-.15.212-.307.432-.484.624-.344.353-.764.5-1.133.63-.458.16-.82.285-1.04.72-.175.333-.1.823-.02 1.34.078.513.16 1.042.01 1.516l-.006.015c-.28.784-.33 1.332-.152 1.628.244.403 1.013.49 1.904.59.92.105 1.966.223 2.9.73.84.45 1.72.697 2.48.697.588 0 1.97-.17 2.085-1.738.076-.784-.744-1.83-1.468-2.755-.464-.59-.9-1.15-1.142-1.665-.748-1.643-1.502-3.128-2.52-3.287-.064-.01-.125-.014-.183-.014zM23.42 32.474c1.84-2.285 5.924-1.816 3.17-4.95-.584-.67-.41-2.127-1.118-2.742-.842-.754-1.77-.136-2.625-.53-.855-.423-1.75-1.245-2.793-.66-1.044.584-1.156 2.105-1.255 4.096-.087 1.434-1.363 3.832-.686 5.15.994 2.044 3.55 1.773 5.305-.364"/>
    <path d="M20.26 34.63c-1.085 0-1.994-.59-2.493-1.615-.505-.982-.1-2.387.256-3.627.185-.646.36-1.257.39-1.724.093-1.905.182-3.708 1.455-4.42.298-.168.612-.252.934-.252.64 0 1.212.332 1.715.625.174.102.34.198.5.277.158.073.347.106.62.106.104 0 .207-.004.31-.008.114-.005.228-.01.342-.01.434 0 .946.06 1.438.5.472.41.62 1.08.752 1.67.1.45.194.872.4 1.11.8.91 1.12 1.62 1 2.236-.153.8-.954 1.195-1.882 1.653-.786.39-1.678.83-2.28 1.577-.993 1.21-2.253 1.903-3.457 1.903zm.542-10.844c-.193 0-.376.05-.562.154-.83.465-.955 1.794-1.053 3.768-.034.562-.22 1.214-.42 1.905-.315 1.094-.67 2.336-.31 3.04.373.765 1.012 1.182 1.803 1.182.96 0 2.03-.604 2.862-1.617.707-.878 1.723-1.38 2.54-1.783.74-.365 1.38-.68 1.457-1.09.064-.34-.21-.863-.82-1.554-.338-.39-.46-.935-.576-1.46-.115-.516-.223-1.002-.503-1.245-.284-.256-.577-.307-.93-.307-.105 0-.208.004-.312.008-.114.005-.227.01-.34.01-.26 0-.603-.02-.95-.182-.194-.095-.377-.202-.555-.306-.44-.257-.895-.522-1.33-.522z"/>
    <path d="M24.296 24.433c-.385.74-1.974 1.915-3.033 1.61-1.08-.302-1.567-1.976-1.356-3.244.197-1.428 1.356-1.5 2.81-.795 1.562.78 2.035 1.447 1.58 2.428M11.533 9.085c.443-.43 1.54-1.72 3.596-.366.38.254.69.277 1.427.6 1.472.62.768 2.112-.79 2.61-.668.223-1.275 1.053-2.49.982-1.038-.062-1.31-.755-1.948-1.138-1.134-.655-1.302-1.54-.69-2.01.612-.47.852-.64.893-.68"/>
    <path d="M13.423 13.03c-.05 0-.1 0-.153-.004-.74-.044-1.11-.39-1.47-.726-.17-.16-.33-.308-.528-.427-.662-.383-1.06-.884-1.09-1.376-.022-.322.118-.615.39-.825.327-.25.547-.415.688-.52.105-.08.182-.137.196-.15l.078-.078c.324-.322.926-.922 1.875-.922.555 0 1.153.21 1.78.62.21.14.4.21.665.302.193.068.434.153.746.29.585.246.897.65.876 1.14-.03.687-.72 1.38-1.676 1.686-.208.07-.42.208-.644.355-.455.298-.97.636-1.733.636zm-.014-4.8c-.86 0-1.398.538-1.72.86-.03.027-.055.054-.08.078-.023.022-.07.06-.218.17-.14.104-.36.268-.684.517-.214.165-.32.382-.304.627.026.413.383.848.98 1.192.22.132.396.297.567.456.346.323.673.628 1.333.667.772.046 1.296-.296 1.752-.595.237-.155.46-.302.697-.38.856-.274 1.495-.895 1.52-1.477.016-.386-.245-.712-.738-.92-.306-.134-.532-.214-.732-.284-.268-.094-.48-.17-.714-.325-.59-.387-1.147-.584-1.66-.584z"/>
    <path d="M13.222 11.766c-1.04 0-1.778-.71-2.175-1.093-.112-.108-.24-.23-.28-.237l.003-.152c.09 0 .193.098.38.277.408.395 1.092 1.053 2.072 1.053.844 0 1.664-.505 2.323-.91.43-.267.772-.478 1.027-.493l.01.153c-.22.013-.563.224-.96.47-.675.415-1.514.933-2.4.933"/>
  </g>
</symbol>

</svg>