<?xml version="1.0" encoding="utf-8"?>
<!DOCTYPE svg PUBLIC "-//W3C//DTD SVG 1.1//EN" "http://www.w3.org/Graphics/SVG/1.1/DTD/svg11.dtd">
<svg xmlns="http://www.w3.org/2000/svg" xmlns:xlink="http://www.w3.org/1999/xlink" style="display: none">
    <symbol id="svg-merge" viewBox="0 0 20 20">
  <path d="M17.89 17.707L16.892 20c-3.137-1.366-5.496-3.152-6.892-5.275-1.396 2.123-3.755 3.91-6.892 5.275l-.998-2.293C5.14 16.39 8.55 14.102 8.55 10V7H5.5L10 0l4.5 7h-3.05v3c0 4.102 3.41 6.39 6.44 7.707z"/>
</symbol>
<symbol id="svg-text" viewBox="0 0 20 20">
  <path fill-rule="evenodd" clip-rule="evenodd" d="M15.5 11h-11c-.275 0-.5.225-.5.5v1c0 .276.225.5.5.5h11c.276 0 .5-.224.5-.5v-1c0-.275-.224-.5-.5-.5zm0-4h-11c-.275 0-.5.225-.5.5v1c0 .276.225.5.5.5h11c.276 0 .5-.224.5-.5v-1c0-.275-.224-.5-.5-.5zm-5 8h-6c-.275 0-.5.225-.5.5v1c0 .276.225.5.5.5h6c.276 0 .5-.224.5-.5v-1c0-.275-.224-.5-.5-.5zm5-12h-11c-.275 0-.5.225-.5.5v1c0 .276.225.5.5.5h11c.276 0 .5-.224.5-.5v-1c0-.275-.224-.5-.5-.5z"/>
</symbol>
<symbol id="svg-list" viewBox="0 0 20 20">
  <path d="M14.4 9H8.6c-.552 0-.6.447-.6 1s.048 1 .6 1h5.8c.552 0 .6-.447.6-1s-.048-1-.6-1zm2 5H8.6c-.552 0-.6.447-.6 1s.048 1 .6 1h7.8c.552 0 .6-.447.6-1s-.048-1-.6-1zM8.6 6h7.8c.552 0 .6-.447.6-1s-.048-1-.6-1H8.6c-.552 0-.6.447-.6 1s.048 1 .6 1zM5.4 9H3.6c-.552 0-.6.447-.6 1s.048 1 .6 1h1.8c.552 0 .6-.447.6-1s-.048-1-.6-1zm0 5H3.6c-.552 0-.6.447-.6 1s.048 1 .6 1h1.8c.552 0 .6-.447.6-1s-.048-1-.6-1zm0-10H3.6c-.552 0-.6.447-.6 1s.048 1 .6 1h1.8c.552 0 .6-.447.6-1s-.048-1-.6-1z"/>
</symbol>
<symbol id="svg-block" viewBox="0 0 20 20">
  <path d="M10 .4C4.697.4.4 4.698.4 10c0 5.303 4.297 9.6 9.6 9.6 5.3 0 9.6-4.297 9.6-9.6 0-5.302-4.3-9.6-9.6-9.6zM2.4 10c0-4.197 3.4-7.6 7.6-7.6 1.828 0 3.505.647 4.816 1.723L4.122 14.817C3.046 13.505 2.4 11.83 2.4 10zm7.6 7.6c-1.83 0-3.506-.647-4.816-1.723L15.878 5.184C16.953 6.496 17.6 8.17 17.6 10c0 4.197-3.404 7.6-7.6 7.6z"/>
</symbol>
<symbol id="svg-tablet" viewBox="0 0 20 20">
  <path d="M16 0H4C2.9 0 2 .9 2 2v16c0 1.1.9 2 2 2h12c1.1 0 2-.9 2-2V2c0-1.1-.9-2-2-2zm-6 19c-.69 0-1.25-.447-1.25-1s.56-1 1.25-1 1.25.447 1.25 1-.56 1-1.25 1zm6-3H4V2h12v14z"/>
</symbol>
<symbol id="svg-network" viewBox="0 0 20 20">
  <path d="M5.274 6.915c.2 0 .394.03.576.086.69-.772 1.455-1.476 2.283-2.1-.035-.145-.054-.298-.054-.454 0-.217.035-.426.1-.62C7.253 3.16 6.245 2.6 5.17 2.17c-1.005.622-1.882 1.432-2.582 2.382.52.92 1.136 1.777 1.838 2.557.256-.125.543-.195.848-.195zM3.316 8.872c0-.275.058-.537.16-.773-.63-.693-1.198-1.437-1.696-2.23C1.155 7.112.8 8.515.8 10c0 1.72.474 3.33 1.295 4.706.294-1.654.85-3.22 1.62-4.652-.25-.328-.4-.74-.4-1.182zm6.72-6.383c.517 0 .985.2 1.336.528 1.02-.44 2.096-.777 3.215-.992C13.237 1.246 11.67.8 10 .8c-1.14 0-2.23.21-3.236.588.8.395 1.56.855 2.277 1.375.293-.174.632-.274.996-.274zm2.926 9.218c.122-.254.295-.48.51-.656-.58-1.777-1.494-3.404-2.673-4.803-.235.1-.493.153-.765.153-.425 0-.816-.137-1.137-.365-.71.54-1.367 1.143-1.964 1.803.188.3.297.653.297 1.032 0 .203-.03.4-.09.586 1.718 1.146 3.695 1.934 5.822 2.25zm2.54 2.643c.025.372.04.745.04 1.122 0 .664-.042 1.318-.122 1.96 1.56-1.138 2.748-2.757 3.347-4.638-.71.172-1.438.295-2.18.365-.174.536-.573.968-1.086 1.19zm-2.998-1.326c-2.272-.377-4.377-1.244-6.21-2.484-.298.182-.647.29-1.02.29-.14 0-.273-.015-.403-.042-.876 1.662-1.437 3.517-1.598 5.484.876.94 1.944 1.697 3.145 2.205 1.492-2.293 3.576-4.19 6.087-5.453zm3.672-9.843c-1.475.144-2.883.515-4.193 1.07.006.065.01.13.01.196 0 .31-.074.6-.2.86 1.31 1.538 2.326 3.33 2.968 5.29.798.016 1.478.502 1.77 1.195.887-.09 1.75-.26 2.58-.503.06-.42.09-.85.09-1.287 0-2.704-1.166-5.136-3.024-6.82zM13.49 14.07c-2.345 1.097-4.305 2.788-5.724 4.855.715.18 1.463.275 2.234.275 1.387 0 2.702-.31 3.882-.86.19-.927.29-1.886.29-2.868 0-.355-.016-.707-.043-1.055-.237-.076-.454-.193-.64-.348z"/>
</symbol>
<symbol id="svg-tv" viewBox="0 0 20 20">
  <path d="M18 1H2C.9 1 0 1.9 0 3v11c0 1.1.882 2.178 1.96 2.393l4.373.875S2.57 19 5 19h10c2.43 0-1.334-1.732-1.334-1.732l4.373-.875C19.116 16.178 20 15.1 20 14V3c0-1.1-.9-2-2-2zm0 13H2V3h16v11z"/>
</symbol>
<symbol id="svg-browser" viewBox="0 0 20 20">
  <path d="M18 2H2C.9 2 0 2.9 0 4v12c0 1.1.9 2 2 2h16c1.1 0 2-.9 2-2V4c0-1.1-.9-2-2-2zM4.5 3.75c.414 0 .75.336.75.75s-.336.75-.75.75-.75-.336-.75-.75.336-.75.75-.75zm-2.75.75c0-.414.336-.75.75-.75s.75.336.75.75-.336.75-.75.75-.75-.336-.75-.75zM18 16H2V7h16v9zm0-11H6V4h12.02L18 5z"/>
</symbol>
<symbol id="svg-back-in-time" viewBox="0 0 20 20">
  <path d="M11 1.8c-4.445 0-8.06 3.56-8.17 7.995V10H.46l3.593 3.894L7.547 10H4.875v-.205C4.982 6.492 7.683 3.85 11 3.85c3.386 0 6.13 2.754 6.13 6.15 0 3.396-2.744 6.15-6.13 6.15-1.357 0-2.61-.445-3.627-1.193L5.967 16.46C7.355 17.55 9.102 18.2 11 18.2c4.515 0 8.174-3.67 8.174-8.2S15.514 1.8 11 1.8zM10 5v5c0 .13.027.26.077.382s.124.233.216.325l3.2 3.2c.283-.183.55-.39.787-.628L12 11V5h-2z"/>
</symbol>
<symbol id="svg-book" viewBox="0 0 20 20">
  <path d="M17 5.95V16.3c0 .523-.452.772-1 1.16-.44.314-1-.074-1-.586V6.76c0-.21-.074-.412-.314-.535-.24-.123-7.738-4.065-7.738-4.065-.12-.045-.65-.378-1.353-.016-.67.344-1.033.718-1.126.894l8.18 4.482c.216.114.35.29.35.516v10.802c0 .23-.142.476-.37.585-.103.052-.218.077-.332.077-.135 0-.27-.033-.386-.104-.215-.13-7.774-4.766-8.273-5.067-.24-.145-.522-.44-.528-.66L3 3.386c0-.198-.023-.547.29-1.032C3.985 1.27 6.417.036 7.65.675l8.998 4.555c.217.112.352.336.352.72z"/>
</symbol>
<symbol id="svg-check" viewBox="0 0 20 20">
  <path d="M8.294 16.998c-.435 0-.847-.203-1.11-.553l-3.574-4.72c-.465-.614-.344-1.487.27-1.952.615-.467 1.488-.344 1.953.27l2.35 3.104 5.912-9.492c.407-.652 1.267-.852 1.92-.445.654.406.855 1.266.447 1.92L9.478 16.34c-.242.39-.66.635-1.12.656-.022.002-.042.002-.064.002z"/>
</symbol>
<symbol id="svg-creative-commons-noncommercial-us" viewBox="0 0 20 20">
  <path d="M9.988.4c2.69 0 4.966.928 6.825 2.784C18.67 5.04 19.6 7.312 19.6 10s-.913 4.936-2.74 6.744C14.923 18.648 12.63 19.6 9.99 19.6c-2.61 0-4.862-.944-6.753-2.832C1.345 14.88.4 12.624.4 10s.945-4.896 2.835-6.816C5.078 1.328 7.33.4 9.988.4zM2.56 7.42c-.287.81-.43 1.67-.43 2.58 0 2.128.777 3.968 2.33 5.52 1.555 1.552 3.405 2.328 5.552 2.328s4.013-.784 5.6-2.352c.53-.513.967-1.073 1.31-1.68l-3.618-1.61c-.246 1.216-1.33 2.04-2.643 2.136v1.48h-1.1v-1.48c-1.078-.013-2.12-.453-2.915-1.15l1.322-1.333c.637.598 1.274.868 2.143.868.563 0 1.188-.22 1.188-.955 0-.26-.1-.44-.26-.577l-.915-.407-1.14-.508c-.563-.252-1.04-.464-1.52-.677L2.56 7.42zm7.452-5.292c-2.18 0-4.02.768-5.527 2.304-.41.414-.766.846-1.07 1.297l3.67 1.632c.332-1.017 1.3-1.635 2.474-1.704v-1.48h1.1v1.48c.76.037 1.593.245 2.413.88l-1.26 1.297c-.466-.33-1.054-.563-1.642-.563-.476 0-1.15.148-1.15.747 0 .09.03.17.086.242l1.228.547.83.37c.532.236 1.04.46 1.542.685l4.92 2.19c.162-.644.244-1.33.244-2.055 0-2.192-.77-4.048-2.307-5.568-1.522-1.536-3.372-2.304-5.55-2.304z"/>
</symbol>
<symbol id="svg-logo" viewBox="0 0 72.3 109">
  <path d="M41.3 32.4v75.3c0 .8.8 1.3 1.5.9l28.9-15.7c.3-.2.5-.5.5-.9V49.3c0-.4-.2-.7-.5-.9L42.9 31.5c-.7-.4-1.6.1-1.6.9zM37.2 108V1c0-.7-.7-1.2-1.4-1L.7 13c-.4.2-.7.5-.7 1v81.4c0 .4.3.8.7 1L35.8 109c.7.2 1.4-.3 1.4-1z"/>
</symbol>
<symbol id="svg-github" viewBox="0 0 32 32">
  <path clip-rule="evenodd" d="M16.003 0C7.17 0 .008 7.162.008 15.997c0 7.067 4.582 13.063 10.94 15.18.8.145 1.052-.33 1.052-.753 0-.38.008-1.442 0-2.777-4.45.967-5.37-2.107-5.37-2.107-.728-1.848-1.776-2.34-1.776-2.34-1.452-.992.11-.973.11-.973 1.604.113 2.45 1.65 2.45 1.65 1.427 2.442 3.743 1.736 4.654 1.328.146-1.034.56-1.74 1.017-2.14C9.533 22.663 5.8 21.29 5.8 15.16c0-1.747.622-3.174 1.645-4.292-.165-.404-.715-2.03.157-4.234 0 0 1.343-.43 4.398 1.64 1.276-.354 2.645-.53 4.005-.537 1.36.006 2.727.183 4.005.538 3.055-2.07 4.396-1.64 4.396-1.64.872 2.202.323 3.83.16 4.233 1.022 1.118 1.643 2.545 1.643 4.292 0 6.146-3.74 7.498-7.305 7.893C19.48 23.548 20 24.508 20 26v4.428c0 .428.258.9 1.07.746C27.422 29.054 32 23.062 32 15.997 32 7.162 24.838 0 16.003 0z" fill-rule="evenodd"/>
</symbol>
<symbol id="svg-twitter" viewBox="0 0 273.4 222.2">
  <path d="M273.4 26.3c-10.1 4.5-20.9 7.5-32.2 8.8 11.6-6.9 20.5-17.9 24.7-31-10.9 6.4-22.9 11.1-35.7 13.6C220 6.8 205.4 0 189.3 0c-31 0-56.1 25.1-56.1 56.1 0 4.4.5 8.7 1.5 12.8C88 66.5 46.7 44.2 19 10.3c-4.8 8.3-7.6 17.9-7.6 28.2 0 19.5 9.9 36.6 25 46.7-9.2-.3-17.8-2.8-25.4-7v.7c0 27.2 19.3 49.8 45 55-4.7 1.3-9.7 2-14.8 2-3.6 0-7.1-.4-10.6-1 7.1 22.3 27.9 38.5 52.4 39-19.2 15-43.4 24-69.7 24-4.5 0-9-.3-13.4-.8 24.8 15.9 54.3 25.2 86 25.2 103.2 0 159.6-85.5 159.6-159.6 0-2.4-.1-4.9-.2-7.3 11.1-8 20.6-17.9 28.1-29.1z"/>
</symbol>

</svg>