<?xml version="1.0" encoding="utf-8"?>
<!DOCTYPE svg PUBLIC "-//W3C//DTD SVG 1.1//EN" "http://www.w3.org/Graphics/SVG/1.1/DTD/svg11.dtd">
<svg xmlns="http://www.w3.org/2000/svg" xmlns:xlink="http://www.w3.org/1999/xlink" style="display: none">
    <symbol id="svg-check" viewBox="0 0 20 20">
  <path d="M8.294 16.998c-.435 0-.847-.203-1.11-.553l-3.574-4.72c-.465-.614-.344-1.487.27-1.952.615-.467 1.488-.344 1.953.27l2.35 3.104 5.912-9.492c.407-.652 1.267-.852 1.92-.445.654.406.855 1.266.447 1.92L9.478 16.34c-.242.39-.66.635-1.12.656-.022.002-.042.002-.064.002z"/>
</symbol>
<symbol id="svg-creative-commons-noncommercial-us" viewBox="0 0 20 20">
  <path d="M9.988.4c2.69 0 4.966.928 6.825 2.784C18.67 5.04 19.6 7.312 19.6 10s-.913 4.936-2.74 6.744C14.923 18.648 12.63 19.6 9.99 19.6c-2.61 0-4.862-.944-6.753-2.832C1.345 14.88.4 12.624.4 10s.945-4.896 2.835-6.816C5.078 1.328 7.33.4 9.988.4zM2.56 7.42c-.287.81-.43 1.67-.43 2.58 0 2.128.777 3.968 2.33 5.52 1.555 1.552 3.405 2.328 5.552 2.328s4.013-.784 5.6-2.352c.53-.513.967-1.073 1.31-1.68l-3.618-1.61c-.246 1.216-1.33 2.04-2.643 2.136v1.48h-1.1v-1.48c-1.078-.013-2.12-.453-2.915-1.15l1.322-1.333c.637.598 1.274.868 2.143.868.563 0 1.188-.22 1.188-.955 0-.26-.1-.44-.26-.577l-.915-.407-1.14-.508c-.563-.252-1.04-.464-1.52-.677L2.56 7.42zm7.452-5.292c-2.18 0-4.02.768-5.527 2.304-.41.414-.766.846-1.07 1.297l3.67 1.632c.332-1.017 1.3-1.635 2.474-1.704v-1.48h1.1v1.48c.76.037 1.593.245 2.413.88l-1.26 1.297c-.466-.33-1.054-.563-1.642-.563-.476 0-1.15.148-1.15.747 0 .09.03.17.086.242l1.228.547.83.37c.532.236 1.04.46 1.542.685l4.92 2.19c.162-.644.244-1.33.244-2.055 0-2.192-.77-4.048-2.307-5.568-1.522-1.536-3.372-2.304-5.55-2.304z"/>
</symbol>
<symbol id="svg-back-in-time" viewBox="0 0 20 20">
  <path d="M11 1.8c-4.445 0-8.06 3.56-8.17 7.995V10H.46l3.593 3.894L7.547 10H4.875v-.205C4.982 6.492 7.683 3.85 11 3.85c3.386 0 6.13 2.754 6.13 6.15 0 3.396-2.744 6.15-6.13 6.15-1.357 0-2.61-.445-3.627-1.193L5.967 16.46C7.355 17.55 9.102 18.2 11 18.2c4.515 0 8.174-3.67 8.174-8.2S15.514 1.8 11 1.8zM10 5v5c0 .13.027.26.077.382s.124.233.216.325l3.2 3.2c.283-.183.55-.39.787-.628L12 11V5h-2z"/>
</symbol>
<symbol id="svg-time-slot" viewBox="0 0 20 20">
  <path d="M10 .4C4.698.4.4 4.698.4 10s4.298 9.6 9.6 9.6c5.3 0 9.6-4.298 9.6-9.6S15.3.4 10 .4zm0 17.2c-4.197 0-7.6-3.403-7.6-7.6C2.4 5.8 5.802 2.4 10 2.4V10l6.792-3.396c.513 1.023.808 2.173.808 3.396 0 4.197-3.403 7.6-7.6 7.6z"/>
</symbol>
<symbol id="svg-merge" viewBox="0 0 20 20">
  <path d="M17.89 17.707L16.892 20c-3.137-1.366-5.496-3.152-6.892-5.275-1.396 2.123-3.755 3.91-6.892 5.275l-.998-2.293C5.14 16.39 8.55 14.102 8.55 10V7H5.5L10 0l4.5 7h-3.05v3c0 4.102 3.41 6.39 6.44 7.707z"/>
</symbol>
<symbol id="svg-text" viewBox="0 0 20 20">
  <path fill-rule="evenodd" clip-rule="evenodd" d="M15.5 11h-11c-.275 0-.5.225-.5.5v1c0 .276.225.5.5.5h11c.276 0 .5-.224.5-.5v-1c0-.275-.224-.5-.5-.5zm0-4h-11c-.275 0-.5.225-.5.5v1c0 .276.225.5.5.5h11c.276 0 .5-.224.5-.5v-1c0-.275-.224-.5-.5-.5zm-5 8h-6c-.275 0-.5.225-.5.5v1c0 .276.225.5.5.5h6c.276 0 .5-.224.5-.5v-1c0-.275-.224-.5-.5-.5zm5-12h-11c-.275 0-.5.225-.5.5v1c0 .276.225.5.5.5h11c.276 0 .5-.224.5-.5v-1c0-.275-.224-.5-.5-.5z"/>
</symbol>
<symbol id="svg-tv" viewBox="0 0 20 20">
  <path d="M18 1H2C.9 1 0 1.9 0 3v11c0 1.1.882 2.178 1.96 2.393l4.373.875S2.57 19 5 19h10c2.43 0-1.334-1.732-1.334-1.732l4.373-.875C19.116 16.178 20 15.1 20 14V3c0-1.1-.9-2-2-2zm0 13H2V3h16v11z"/>
</symbol>
<symbol id="svg-block" viewBox="0 0 20 20">
  <path d="M10 .4C4.697.4.4 4.698.4 10c0 5.303 4.297 9.6 9.6 9.6 5.3 0 9.6-4.297 9.6-9.6 0-5.302-4.3-9.6-9.6-9.6zM2.4 10c0-4.197 3.4-7.6 7.6-7.6 1.828 0 3.505.647 4.816 1.723L4.122 14.817C3.046 13.505 2.4 11.83 2.4 10zm7.6 7.6c-1.83 0-3.506-.647-4.816-1.723L15.878 5.184C16.953 6.496 17.6 8.17 17.6 10c0 4.197-3.404 7.6-7.6 7.6z"/>
</symbol>
<symbol id="svg-list" viewBox="0 0 20 20">
  <path d="M14.4 9H8.6c-.552 0-.6.447-.6 1s.048 1 .6 1h5.8c.552 0 .6-.447.6-1s-.048-1-.6-1zm2 5H8.6c-.552 0-.6.447-.6 1s.048 1 .6 1h7.8c.552 0 .6-.447.6-1s-.048-1-.6-1zM8.6 6h7.8c.552 0 .6-.447.6-1s-.048-1-.6-1H8.6c-.552 0-.6.447-.6 1s.048 1 .6 1zM5.4 9H3.6c-.552 0-.6.447-.6 1s.048 1 .6 1h1.8c.552 0 .6-.447.6-1s-.048-1-.6-1zm0 5H3.6c-.552 0-.6.447-.6 1s.048 1 .6 1h1.8c.552 0 .6-.447.6-1s-.048-1-.6-1zm0-10H3.6c-.552 0-.6.447-.6 1s.048 1 .6 1h1.8c.552 0 .6-.447.6-1s-.048-1-.6-1z"/>
</symbol>
<symbol id="svg-logo" viewBox="0 0 72.3 109">
  <path d="M41.3 32.4v75.3c0 .8.8 1.3 1.5.9l28.9-15.7c.3-.2.5-.5.5-.9V49.3c0-.4-.2-.7-.5-.9L42.9 31.5c-.7-.4-1.6.1-1.6.9zM37.2 108V1c0-.7-.7-1.2-1.4-1L.7 13c-.4.2-.7.5-.7 1v81.4c0 .4.3.8.7 1L35.8 109c.7.2 1.4-.3 1.4-1z"/>
</symbol>
<symbol id="svg-github" viewBox="0 0 32 32">
  <path clip-rule="evenodd" d="M16.003 0C7.17 0 .008 7.162.008 15.997c0 7.067 4.582 13.063 10.94 15.18.8.145 1.052-.33 1.052-.753 0-.38.008-1.442 0-2.777-4.45.967-5.37-2.107-5.37-2.107-.728-1.848-1.776-2.34-1.776-2.34-1.452-.992.11-.973.11-.973 1.604.113 2.45 1.65 2.45 1.65 1.427 2.442 3.743 1.736 4.654 1.328.146-1.034.56-1.74 1.017-2.14C9.533 22.663 5.8 21.29 5.8 15.16c0-1.747.622-3.174 1.645-4.292-.165-.404-.715-2.03.157-4.234 0 0 1.343-.43 4.398 1.64 1.276-.354 2.645-.53 4.005-.537 1.36.006 2.727.183 4.005.538 3.055-2.07 4.396-1.64 4.396-1.64.872 2.202.323 3.83.16 4.233 1.022 1.118 1.643 2.545 1.643 4.292 0 6.146-3.74 7.498-7.305 7.893C19.48 23.548 20 24.508 20 26v4.428c0 .428.258.9 1.07.746C27.422 29.054 32 23.062 32 15.997 32 7.162 24.838 0 16.003 0z" fill-rule="evenodd"/>
</symbol>
<symbol id="svg-twitter" viewBox="0 0 273.4 222.2">
  <path d="M273.4 26.3c-10.1 4.5-20.9 7.5-32.2 8.8 11.6-6.9 20.5-17.9 24.7-31-10.9 6.4-22.9 11.1-35.7 13.6C220 6.8 205.4 0 189.3 0c-31 0-56.1 25.1-56.1 56.1 0 4.4.5 8.7 1.5 12.8C88 66.5 46.7 44.2 19 10.3c-4.8 8.3-7.6 17.9-7.6 28.2 0 19.5 9.9 36.6 25 46.7-9.2-.3-17.8-2.8-25.4-7v.7c0 27.2 19.3 49.8 45 55-4.7 1.3-9.7 2-14.8 2-3.6 0-7.1-.4-10.6-1 7.1 22.3 27.9 38.5 52.4 39-19.2 15-43.4 24-69.7 24-4.5 0-9-.3-13.4-.8 24.8 15.9 54.3 25.2 86 25.2 103.2 0 159.6-85.5 159.6-159.6 0-2.4-.1-4.9-.2-7.3 11.1-8 20.6-17.9 28.1-29.1z"/>
</symbol>
<symbol id="svg-circle-play" viewBox="0 0 191.4 191.4">
  <circle fill="none" stroke="#FFF" stroke-width="22" stroke-miterlimit="10" cx="95.7" cy="95.7" r="84.7"/>
  <path d="M87.8 57l46.7 32.6c4.2 3 4.2 9.2 0 12.2l-45.3 31.6c-4.7 3.3-11.1-.1-11.1-5.8V62c0-4.9 5.6-7.9 9.7-5z"/>
</symbol>
<symbol id="svg-code" viewBox="0 0 20 20">
  <path d="M5.72 14.75c-.237 0-.475-.083-.665-.252L-.005 10l5.34-4.748c.413-.365 1.045-.33 1.412.083.367.413.33 1.045-.083 1.412L3.004 10l3.38 3.002c.412.367.45 1 .082 1.412-.197.223-.472.336-.747.336zm8.944-.002L20.004 10l-5.06-4.498c-.412-.367-1.044-.33-1.41.083-.367.413-.33 1.045.083 1.412L16.995 10l-3.66 3.252c-.412.367-.45 1-.082 1.412.197.223.472.336.747.336.236 0 .474-.083.664-.252zm-4.678 1.417l2-12c.09-.545-.277-1.06-.822-1.15-.547-.093-1.06.276-1.15.82l-2 12c-.09.546.277 1.06.822 1.152.056.01.11.013.165.013.48 0 .905-.347.986-.835z"/>
</symbol>
<symbol id="svg-menu" viewBox="0 0 20 20">
  <path d="M16.4 9H3.6c-.552 0-.6.447-.6 1 0 .553.048 1 .6 1h12.8c.552 0 .6-.447.6-1 0-.553-.048-1-.6-1zm0 4H3.6c-.552 0-.6.447-.6 1 0 .553.048 1 .6 1h12.8c.552 0 .6-.447.6-1 0-.553-.048-1-.6-1zM3.6 7h12.8c.552 0 .6-.447.6-1 0-.553-.048-1-.6-1H3.6c-.552 0-.6.447-.6 1 0 .553.048 1 .6 1z"/>
</symbol>
<symbol id="svg-cross" viewBox="0 0 20 20">
  <path d="M14.348 14.85c-.47.468-1.23.468-1.697 0L10 11.82l-2.65 3.028c-.47.47-1.23.47-1.698 0-.47-.47-.47-1.23 0-1.697L8.41 10 5.65 6.85c-.468-.47-.468-1.23 0-1.698.47-.47 1.23-.47 1.698 0L10 8.182l2.65-3.03c.47-.47 1.23-.47 1.698 0 .47.47.47 1.23 0 1.697L11.59 10l2.758 3.15c.47.47.47 1.23 0 1.7z"/>
</symbol>

</svg>