<!-- Generator: Adobe Illustrator 18.1.1, SVG Export Plug-In  -->
<svg version="1.1"
	 xmlns="http://www.w3.org/2000/svg" xmlns:xlink="http://www.w3.org/1999/xlink" xmlns:a="http://ns.adobe.com/AdobeSVGViewerExtensions/3.0/"
	 x="0px" y="0px" width="140px" height="204.1px" viewBox="0 0 140 204.1" enable-background="new 0 0 140 204.1"
	 xml:space="preserve">
<defs>
</defs>
<path fill="#F24747" d="M63.5,0.3L1.7,31.2c-1,0.5-1.7,1.5-1.7,2.7v136.3c0,1.1,0.6,2.2,1.7,2.7l61.8,30.9c2,1,4.3-0.5,4.3-2.7V3
	C67.8,0.8,65.5-0.7,63.5,0.3z"/>
<path fill="#F24747" d="M76.5,203.8l61.8-30.9c1-0.5,1.7-1.5,1.7-2.7v-66.3c0-1.1-0.6-2.2-1.7-2.7L76.5,70.3c-2-1-4.3,0.5-4.3,2.7
	v128.1C72.2,203.3,74.5,204.8,76.5,203.8z"/>
<path fill="#F24747" d="M110.9,0.1L90.1,10.5c-0.3,0.2-0.6,0.5-0.6,0.9v45.9c0,0.4,0.2,0.7,0.6,0.9l20.8,10.4
	c0.7,0.3,1.5-0.2,1.5-0.9V1C112.4,0.3,111.6-0.2,110.9,0.1z"/>
<path fill="#F24747" d="M115.3,68.6l20.8-10.4c0.3-0.2,0.6-0.5,0.6-0.9V35c0-0.4-0.2-0.7-0.6-0.9l-20.8-10.4
	c-0.7-0.3-1.5,0.2-1.5,0.9v43.1C113.8,68.4,114.6,68.9,115.3,68.6z"/>
</svg>
