<!-- Generator: Adobe Illustrator 18.1.1, SVG Export Plug-In  -->
<svg version="1.1"
	 xmlns="http://www.w3.org/2000/svg" xmlns:xlink="http://www.w3.org/1999/xlink" xmlns:a="http://ns.adobe.com/AdobeSVGViewerExtensions/3.0/"
	 x="0px" y="0px" width="216.4px" height="204.1px" viewBox="0 0 216.4 204.1" enable-background="new 0 0 216.4 204.1"
	 xml:space="preserve">
<defs>
</defs>
<path fill="#F24747" d="M98.1,0.3L2.6,31.2C1,31.7,0,32.8,0,33.9l0,136.3c0,1.1,1,2.2,2.6,2.7l95.5,30.9c3.1,1,6.7-0.5,6.7-2.7V3
	C104.8,0.8,101.2-0.7,98.1,0.3z"/>
<path fill="#F24747" d="M118.3,203.8l95.5-30.9c1.6-0.5,2.6-1.5,2.6-2.7v-66.3c0-1.1-1-2.2-2.6-2.7l-95.5-30.9
	c-3.1-1-6.7,0.5-6.7,2.7v128.1C111.6,203.3,115.2,204.8,118.3,203.8z"/>
</svg>
