<!-- Generator: Adobe Illustrator 19.0.0, SVG Export Plug-In  -->
<svg version="1.1"
	 xmlns="http://www.w3.org/2000/svg" xmlns:xlink="http://www.w3.org/1999/xlink" xmlns:a="http://ns.adobe.com/AdobeSVGViewerExtensions/3.0/"
	 x="0px" y="0px" width="72.3px" height="109px" viewBox="0 0 72.3 109" enable-background="new 0 0 72.3 109" xml:space="preserve">
<g>
	<path fill="#FFFFFF" d="M41.3,32.4v75.3c0,0.8,0.8,1.3,1.5,0.9l28.9-15.7c0.3-0.2,0.5-0.5,0.5-0.9V49.3c0-0.4-0.2-0.7-0.5-0.9
		L42.9,31.5C42.2,31.1,41.3,31.6,41.3,32.4z"/>
	<path fill="#FFFFFF" d="M37.2,108V1c0-0.7-0.7-1.2-1.4-1l-35.1,13c-0.4,0.2-0.7,0.5-0.7,1v81.4c0,0.4,0.3,0.8,0.7,1L35.8,109
		C36.5,109.2,37.2,108.7,37.2,108z"/>
</g>
</svg>
