<!-- Generator: Adobe Illustrator 18.1.1, SVG Export Plug-In  -->
<svg version="1.1"
	 xmlns="http://www.w3.org/2000/svg" xmlns:xlink="http://www.w3.org/1999/xlink" xmlns:a="http://ns.adobe.com/AdobeSVGViewerExtensions/3.0/"
	 x="0px" y="0px" width="140px" height="204.1px" viewBox="0 0 140 204.1" enable-background="new 0 0 140 204.1"
	 xml:space="preserve">
<defs>
</defs>
<path fill="#F24747" d="M63.5,0.3L1.7,31.2c-1,0.5-1.7,1.5-1.7,2.7v136.3c0,1.1,0.6,2.2,1.7,2.7l61.8,30.9c2,1,4.3-0.5,4.3-2.7V3
	C67.8,0.8,65.5-0.7,63.5,0.3z"/>
<path fill="#F24747" d="M76.5,203.8l61.8-30.9c1-0.5,1.7-1.5,1.7-2.7v-66.3c0-1.1-0.6-2.2-1.7-2.7L76.5,70.3c-2-1-4.3,0.5-4.3,2.7
	v128.1C72.2,203.3,74.5,204.8,76.5,203.8z"/>
</svg>
