<!-- Generator: Adobe Illustrator 19.0.1, SVG Export Plug-In  -->
<svg version="1.1"
	 xmlns="http://www.w3.org/2000/svg" xmlns:xlink="http://www.w3.org/1999/xlink" xmlns:a="http://ns.adobe.com/AdobeSVGViewerExtensions/3.0/"
	 x="0px" y="0px" width="125px" height="125px" viewBox="0 0 125 125" style="enable-background:new 0 0 125 125;"
	 xml:space="preserve">
<style type="text/css">
	.st0{fill:#FFFFFF;}
</style>
<defs>
</defs>
<g>
	<rect x="54" y="53.7" transform="matrix(-0.3176 -0.9482 0.9482 -0.3176 23.095 141.6703)" class="st0" width="17" height="17.6"/>
	<g>
			<rect x="54" y="53.7" transform="matrix(-0.3176 -0.9482 0.9482 -0.3176 23.095 141.6703)" class="st0" width="17" height="17.6"/>
		<path class="st0" d="M119.8,45.3c-12.9-43-31.5-53-74.5-40.1c-43,12.9-53,31.5-40.1,74.5c12.9,43,31.5,53,74.5,40.1
			C122.7,106.9,132.7,88.3,119.8,45.3z M98.1,73.2L90,75.9l2.8,8.4c1.1,3.4-0.7,7.1-4.1,8.2c-0.7,0.2-1.5,0.4-2.2,0.3
			c-2.6-0.1-5.1-1.8-6-4.4l-2.8-8.4L61,85.7l2.8,8.4c1.1,3.4-0.7,7.1-4.1,8.2c-0.7,0.2-1.5,0.4-2.2,0.3c-2.6-0.1-5.1-1.8-6-4.4
			l-2.8-8.4l-8.1,2.7c-0.7,0.2-1.5,0.4-2.2,0.3c-2.6-0.1-5.1-1.8-6-4.4c-1.1-3.4,0.7-7.1,4.1-8.2l8.1-2.7l-5.4-16.1l-8.1,2.7
			c-0.7,0.2-1.5,0.4-2.2,0.3c-2.6-0.1-5.1-1.8-6-4.4c-1.1-3.4,0.7-7.1,4.1-8.2l8.1-2.7l-2.8-8.4c-1.1-3.4,0.7-7.1,4.1-8.2
			c3.4-1.1,7.1,0.7,8.2,4.1l2.8,8.4l16.7-5.6L61.3,31c-1.1-3.4,0.7-7.1,4.1-8.2c3.4-1.1,7.1,0.7,8.2,4.1l2.8,8.4l8.1-2.7
			c3.4-1.1,7.1,0.7,8.2,4.1c1.1,3.4-0.7,7.1-4.1,8.2l-8.1,2.7l5.4,16.1l8.1-2.7c3.4-1.1,7.1,0.7,8.2,4.1
			C103.3,68.4,101.5,72.1,98.1,73.2z"/>
	</g>
</g>
</svg>
