<!-- Generator: Adobe Illustrator 18.1.1, SVG Export Plug-In  -->
<svg version="1.1"
	 xmlns="http://www.w3.org/2000/svg" xmlns:xlink="http://www.w3.org/1999/xlink" xmlns:a="http://ns.adobe.com/AdobeSVGViewerExtensions/3.0/"
	 x="0px" y="0px" width="113.3px" height="78px" viewBox="0 0 113.3 78" enable-background="new 0 0 113.3 78" xml:space="preserve"
	>
<defs>
</defs>
<g>
	<path d="M23.6,0h11.7L59,77h-4l-7.2-23.6H11.1L4,77H0L23.6,0z M12.3,49.6h34.3L32.6,3.7h-6.2L12.3,49.6z"/>
	<path d="M105,69.9c0.3,3.2,4.4,4.3,8.2,4.6l-0.2,3.4c-4.7,0-8.9-1.2-11.3-4.6c0,0-11.2,4.7-22.2,4.7c-9,0-14.4-5.4-14.4-16.1
		c0-9.3,4.4-14.7,15.2-15.8l20.9-2.2v-5.7c0-9.6-4.2-13.4-12.2-13.4s-20.8,1.9-20.8,1.9L67.9,23c0,0,12.3-2,21.1-2
		c11.1,0,16.1,5.8,16.1,17.2V69.9z M80.7,49.5c-8.6,0.9-11.5,4.8-11.5,12.4c0,8,3.7,12.5,10.5,12.5c10.3,0,21.6-4.5,21.6-4.5V47.4
		L80.7,49.5z"/>
</g>
</svg>
