<!-- Generator: Adobe Illustrator 18.1.1, SVG Export Plug-In  -->
<svg version="1.1"
	 xmlns="http://www.w3.org/2000/svg" xmlns:xlink="http://www.w3.org/1999/xlink" xmlns:a="http://ns.adobe.com/AdobeSVGViewerExtensions/3.0/"
	 x="0px" y="0px" width="12.7px" height="8.3px" viewBox="0 0 12.7 8.3" enable-background="new 0 0 12.7 8.3" xml:space="preserve"
	>
<defs>
</defs>
<g>
	<path fill="#6D6D6D" d="M2,0h2.7l2,8.2H5.4L4.9,6.5H1.8L1.3,8.2H0L2,0z M2,5.3h2.6l-1-4.2H3.1L2,5.3z"/>
	<path fill="#6D6D6D" d="M12.2,6.8c0,0.4,0.2,0.5,0.5,0.6l0,1c-0.7,0-1.2-0.1-1.6-0.4c0,0-1,0.4-1.9,0.4C8,8.3,7.4,7.7,7.4,6.4
		c0-1.3,0.7-1.7,2-1.8l1.5-0.1V4.1c0-0.7-0.3-0.9-0.9-0.9c-0.8,0-2.3,0.1-2.3,0.1l0-0.9c0,0,1.3-0.3,2.4-0.3c1.5,0,2.1,0.6,2.1,2
		V6.8z M9.5,5.6c-0.6,0-0.8,0.3-0.8,0.9s0.2,0.9,0.7,0.9c0.7,0,1.5-0.3,1.5-0.3V5.4L9.5,5.6z"/>
</g>
</svg>
