<!-- Generator: Adobe Illustrator 18.1.1, SVG Export Plug-In  -->
<svg version="1.1"
	 xmlns="http://www.w3.org/2000/svg" xmlns:xlink="http://www.w3.org/1999/xlink" xmlns:a="http://ns.adobe.com/AdobeSVGViewerExtensions/3.0/"
	 x="0px" y="0px" width="113.8px" height="77.2px" viewBox="0 0 113.8 77.2" enable-background="new 0 0 113.8 77.2"
	 xml:space="preserve">
<defs>
</defs>
<g>
	<path d="M20.9,0h18.5l20.9,76.1h-8.4l-5.5-19.6H13.9L8.4,76.1H0L20.9,0z M15.7,49h28.8L33,7.3h-5.7L15.7,49z"/>
	<path d="M107.5,65.9c0.2,3.2,2.9,4.4,6.4,4.8l-0.3,6.5c-5.8,0-9.8-1.1-13.1-4.4c0,0-9.9,4.4-19.8,4.4c-10,0-15.5-5.7-15.5-16.8
		c0-10.6,5.5-15.2,16.8-16.3l17.3-1.6v-4.7c0-7.7-3.3-10.5-9.9-10.5c-7.7,0-20.8,1.4-20.8,1.4l-0.3-6.3c0,0,12.1-2.4,21.6-2.4
		c12.4,0,17.7,5.7,17.7,17.7V65.9z M82.9,50.3c-6.7,0.7-9.4,3.9-9.4,9.9c0,6.4,2.8,10.1,8.4,10.1c8.1,0,17.3-3.4,17.3-3.4V48.7
		L82.9,50.3z"/>
</g>
</svg>
