<!-- Generator: Adobe Illustrator 18.1.1, SVG Export Plug-In  -->
<svg version="1.1"
	 xmlns="http://www.w3.org/2000/svg" xmlns:xlink="http://www.w3.org/1999/xlink" xmlns:a="http://ns.adobe.com/AdobeSVGViewerExtensions/3.0/"
	 x="0px" y="0px" width="114.3px" height="76.6px" viewBox="0 0 114.3 76.6" enable-background="new 0 0 114.3 76.6"
	 xml:space="preserve">
<defs>
</defs>
<g>
	<path d="M18.6,0h24.3l18.7,75.4H49.3l-4.1-16.2H16.3l-4.1,16.2H0L18.6,0z M18.7,48.4h24.1l-9.2-38.2H28L18.7,48.4z"/>
	<path d="M109.5,62.4c0.2,3.3,1.7,4.6,4.8,5.1l-0.3,9.1c-6.7,0-10.6-0.9-14.6-4.1c0,0-8.8,4.1-17.7,4.1c-10.9,0-16.4-6-16.4-17.5
		c0-11.7,6.4-15.6,18.1-16.6l14.2-1.2v-4c0-6.1-2.6-7.9-8-7.9c-7.4,0-20.7,1.1-20.7,1.1L68.4,22c0,0,12-2.9,22.1-2.9
		c13.4,0,18.9,5.6,18.9,18.2V62.4z M84.8,50.9c-5.1,0.4-7.6,2.9-7.6,7.8s2.1,8,6.7,8c6.3,0,13.6-2.4,13.6-2.4V49.7L84.8,50.9z"/>
</g>
</svg>
