<!-- Generator: Adobe Illustrator 18.1.1, SVG Export Plug-In  -->
<svg version="1.1"
	 xmlns="http://www.w3.org/2000/svg" xmlns:xlink="http://www.w3.org/1999/xlink" xmlns:a="http://ns.adobe.com/AdobeSVGViewerExtensions/3.0/"
	 x="0px" y="0px" width="12.7px" height="8.4px" viewBox="0 0 12.7 8.4" enable-background="new 0 0 12.7 8.4" xml:space="preserve"
	>
<defs>
</defs>
<g>
	<path fill="#6D6D6D" d="M2.3,0h2l2.3,8.3H5.7L5.1,6.2H1.5L0.9,8.3H0L2.3,0z M1.7,5.3h3.1L3.6,0.8H3L1.7,5.3z"/>
	<path fill="#6D6D6D" d="M12,7.2c0,0.3,0.3,0.5,0.7,0.5l0,0.7c-0.6,0-1.1-0.1-1.4-0.5c0,0-1.1,0.5-2.2,0.5c-1.1,0-1.7-0.6-1.7-1.8
		c0-1.2,0.6-1.7,1.8-1.8l1.9-0.2V4.1C11.1,3.3,10.7,3,10,3C9.1,3,7.7,3.1,7.7,3.1l0-0.7c0,0,1.3-0.3,2.4-0.3c1.4,0,1.9,0.6,1.9,1.9
		V7.2z M9.3,5.5c-0.7,0.1-1,0.4-1,1.1c0,0.7,0.3,1.1,0.9,1.1c0.9,0,1.9-0.4,1.9-0.4v-2L9.3,5.5z"/>
</g>
</svg>
