<!-- Generator: Adobe Illustrator 18.1.1, SVG Export Plug-In  -->
<svg version="1.1"
	 xmlns="http://www.w3.org/2000/svg" xmlns:xlink="http://www.w3.org/1999/xlink" xmlns:a="http://ns.adobe.com/AdobeSVGViewerExtensions/3.0/"
	 x="0px" y="0px" width="536.3px" height="106.8px" viewBox="0 0 536.3 106.8" enable-background="new 0 0 536.3 106.8"
	 xml:space="preserve">
<defs>
</defs>
<path fill="#F24747" d="M33,0.2l-32.1,16C0.3,16.5,0,17,0,17.6v70.8c0,0.6,0.3,1.1,0.9,1.4l32.1,16c1,0.5,2.3-0.2,2.3-1.4V1.6
	C35.2,0.4,34-0.4,33,0.2z"/>
<path fill="#F24747" d="M39.7,105.8l32.1-16c0.5-0.3,0.9-0.8,0.9-1.4V54c0-0.6-0.3-1.1-0.9-1.4l-32.1-16c-1-0.5-2.3,0.2-2.3,1.4
	v66.5C37.5,105.6,38.7,106.3,39.7,105.8z"/>
<g>
	<path fill="#F24747" d="M129.7,34.8c10.8,0,16.6,4,16.6,14.1c0,6.6-2.1,9.8-6.4,12.2c4.7,1.8,7.8,5.2,7.8,12.6
		c0,11.1-6.7,15.4-17.3,15.4H109V34.8H129.7z M117.9,42.4V58h11.7c5.4,0,7.8-2.7,7.8-8c0-5.2-2.7-7.5-8.1-7.5H117.9z M117.9,65.4
		v16.1h12c5.5,0,8.7-1.7,8.7-8.3c0-6.2-4.6-7.9-8.9-7.9H117.9z"/>
	<path fill="#F24747" d="M156.6,49.5h8.6v4.8c0,0,6.7-4.4,13.5-5.6v8.6c-7.2,1.4-13.4,6.3-13.4,6.3v25.6h-8.6V49.5z"/>
	<path fill="#F24747" d="M365.4,49.5h8.6v4.8c0,0,6.7-4.4,13.5-5.6v8.6c-7.2,1.4-13.4,6.3-13.4,6.3v25.6h-8.6V49.5z"/>
	<path fill="#F24747" d="M218.4,69.1c0,13.2-4,20.9-17.7,20.9c-13.6,0-17.7-7.8-17.7-20.9c0-12.9,4.4-20.5,17.7-20.5
		S218.4,56.2,218.4,69.1z M209.7,69.1c0-9.2-2-13.2-9-13.2c-7,0-9,4-9,13.2s1.6,13.6,9,13.6C208.1,82.7,209.7,78.3,209.7,69.1z"/>
	<path fill="#F24747" d="M232.3,49.5l6.3,32.3h1.6l7.5-31.5h8.9l7.5,31.5h1.6l6.2-32.3h8.6l-8.4,39.7h-13.7L252.2,62L246,89.2h-13.7
		l-8.4-39.7H232.3z"/>
	<path fill="#F24747" d="M315.4,57.7c0,0-9.4-1.3-14.1-1.3c-4.8,0-6.9,1.1-6.9,4.4c0,2.6,1.7,3.3,9.4,4.7c9.5,1.7,12.9,4,12.9,12
		c0,9.3-5.9,12.6-15.7,12.6c-5.5,0-14.7-1.7-14.7-1.7l0.3-7.2c0,0,9.5,1.3,13.6,1.3c5.7,0,7.9-1.2,7.9-4.7c0-2.8-1.3-3.6-9.2-4.9
		c-8.7-1.4-13.2-3.3-13.2-11.7c0-9,7-12.3,14.8-12.3c5.8,0,14.9,1.7,14.9,1.7L315.4,57.7z"/>
	<path fill="#F24747" d="M355.6,81.8l0.2,6.4c0,0-9,1.8-16,1.8c-11.9,0-16.5-6.3-16.5-20.3c0-14.5,6.3-21.1,17.2-21.1
		c11.1,0,16.7,5.8,16.7,18.2l-0.6,6.2h-24.6c0.1,6.3,2.5,9.5,9,9.5C347.2,82.5,355.6,81.8,355.6,81.8z M348.6,66.3
		c0-7.9-2.4-10.6-8.2-10.6c-5.9,0-8.5,2.9-8.6,10.6H348.6z"/>
	<path fill="#F24747" d="M420.5,54.3c0,0-8.5-1.3-13.7-1.3c-4.9,0-9.4,1.3-9.4,6.7c0,4.1,2,5.3,10.6,6.7c10.2,1.7,14,3.5,14,11.1
		c0,9.3-5.8,12.3-15.3,12.3c-4.8,0-13.6-1.4-13.6-1.4l0.3-4.2c0,0,8.9,1.3,12.9,1.3c6.8,0,10.8-1.6,10.8-7.8c0-4.8-2.4-5.8-11.3-7.1
		c-9.1-1.4-13.3-3.1-13.3-10.8c0-8.6,7.1-11.2,14-11.2c6,0,14,1.3,14,1.3L420.5,54.3z"/>
	<path fill="#F24747" d="M432,49.5L442.5,85h2.9L456,49.5h4.8l-16.9,57.3h-4.8l5.1-17.7h-5.5l-11.7-39.7H432z"/>
	<path fill="#F24747" d="M468.9,89.2V49.5h4.7v2.9c0,0,6.7-3.7,12.9-3.7c10.9,0,13.3,5.1,13.3,19.6v20.9H495V68.5
		c0-11.7-1.3-15.6-9.2-15.6c-6.2,0-12.2,3.3-12.2,3.3v32.8H468.9z"/>
	<path fill="#F24747" d="M536.2,49.7l-0.2,4c0,0-6.3-0.8-9.3-0.8c-9.5,0-12.3,4.2-12.3,15.6c0,12.5,1.9,17.1,12.3,17.1
		c3,0,9.4-0.7,9.4-0.7l0.2,4c0,0-7.1,1-10.5,1c-12.9,0-16.3-5.7-16.3-21.3c0-14.5,4.6-19.9,16.4-19.9
		C529.3,48.7,536.2,49.7,536.2,49.7z"/>
</g>
</svg>
