<!-- Generator: Adobe Illustrator 18.1.1, SVG Export Plug-In  -->
<svg version="1.1"
	 xmlns="http://www.w3.org/2000/svg" xmlns:xlink="http://www.w3.org/1999/xlink" xmlns:a="http://ns.adobe.com/AdobeSVGViewerExtensions/3.0/"
	 x="0px" y="0px" width="302.7px" height="374px" viewBox="0 0 302.7 374" enable-background="new 0 0 302.7 374"
	 xml:space="preserve">
<defs>
</defs>
<g>
	<g>
		<path fill="#DDDDDD" d="M280.1,374L140.2,304L0.4,374l-0.2-0.4l139.6-69.8L0.1,234v-0.4l139.6-69.8L0.1,94v-0.4l140-70h0.2l140,70
			V94l-139.6,69.8l139.6,69.8v0.4l-139.6,69.8l139.6,69.8L280.1,374z M0.8,233.8l139.4,69.7l139.4-69.7L140.2,164L0.8,233.8z
			 M0.8,93.8l139.4,69.7l139.4-69.7L140.2,24L0.8,93.8z"/>
	</g>
	<g>
		<path fill="#DDDDDD" d="M140.4,374h-0.2l-140-70v-0.4l139.6-69.8L0.1,164v-0.4l139.6-69.8L0.1,24l0.2-0.4l139.9,69.9l139.9-69.9
			l0.2,0.4L140.8,93.8l139.6,69.8v0.4l-139.6,69.8l139.6,69.8v0.4L140.4,374z M0.8,303.8l139.4,69.7l139.4-69.7L140.2,234L0.8,303.8
			z M0.8,163.8l139.4,69.7l139.4-69.7L140.2,94L0.8,163.8z"/>
	</g>
	<g>
		<path fill="#DDDDDD" d="M70.5,94H0V23.5h70.5V94z M0.5,93.5H70V24H0.5V93.5z"/>
	</g>
	<g>
		<path fill="#DDDDDD" d="M35.5,59H0V23.5h35.5V59z M0.5,58.5H35V24H0.5V58.5z"/>
	</g>
	<g>
		<path fill="#DDDDDD" d="M70.5,59H35V23.5h35.5V59z M35.5,58.5H70V24H35.5V58.5z"/>
	</g>
	<g>
		<path fill="#DDDDDD" d="M35.5,94H0V58.5h35.5V94z M0.5,93.5H35V59H0.5V93.5z"/>
	</g>
	<g>
		<path fill="#DDDDDD" d="M70.5,94H35V58.5h35.5V94z M35.5,93.5H70V59H35.5V93.5z"/>
	</g>
	<g>
		<path fill="#DDDDDD" d="M35.5,59H0V23.5h35.5V59z M0.5,58.5H35V24H0.5V58.5z"/>
	</g>
	<g>
		<path fill="#DDDDDD" d="M70.5,59H35V23.5h35.5V59z M35.5,58.5H70V24H35.5V58.5z"/>
	</g>
	<g>
		<path fill="#DDDDDD" d="M35.5,94H0V58.5h35.5V94z M0.5,93.5H35V59H0.5V93.5z"/>
	</g>
	<g>
		<path fill="#DDDDDD" d="M70.5,94H35V58.5h35.5V94z M35.5,93.5H70V59H35.5V93.5z"/>
	</g>
	<g>
		<path fill="#DDDDDD" d="M18,41.5H0v-18h18V41.5z M0.5,41h17V24h-17V41z"/>
	</g>
	<g>
		<path fill="#DDDDDD" d="M35.5,41.5h-18v-18h18V41.5z M18,41h17V24H18V41z"/>
	</g>
	<g>
		<path fill="#DDDDDD" d="M53,41.5H35v-18h18V41.5z M35.5,41h17V24h-17V41z"/>
	</g>
	<g>
		<path fill="#DDDDDD" d="M70.5,41.5h-18v-18h18V41.5z M53,41h17V24H53V41z"/>
	</g>
	<g>
		<path fill="#DDDDDD" d="M70.5,59h-18V41h18V59z M53,58.5h17v-17H53V58.5z"/>
	</g>
	<g>
		<path fill="#DDDDDD" d="M18,59H0V41h18V59z M0.5,58.5h17v-17h-17V58.5z"/>
	</g>
	<g>
		<path fill="#DDDDDD" d="M35.5,59h-18V41h18V59z M18,58.5h17v-17H18V58.5z"/>
	</g>
	<g>
		<path fill="#DDDDDD" d="M53,59H35V41h18V59z M35.5,58.5h17v-17h-17V58.5z"/>
	</g>
	<g>
		<path fill="#DDDDDD" d="M18,76.5H0v-18h18V76.5z M0.5,76h17V59h-17V76z"/>
	</g>
	<g>
		<path fill="#DDDDDD" d="M35.5,76.5h-18v-18h18V76.5z M18,76h17V59H18V76z"/>
	</g>
	<g>
		<path fill="#DDDDDD" d="M53,76.5H35v-18h18V76.5z M35.5,76h17V59h-17V76z"/>
	</g>
	<g>
		<path fill="#DDDDDD" d="M53,76.5H35v-18h18V76.5z M35.5,76h17V59h-17V76z"/>
	</g>
	<g>
		<path fill="#DDDDDD" d="M70.5,76.5h-18v-18h18V76.5z M53,76h17V59H53V76z"/>
	</g>
	<g>
		<path fill="#DDDDDD" d="M18,94H0V76h18V94z M0.5,93.5h17v-17h-17V93.5z"/>
	</g>
	<g>
		<path fill="#DDDDDD" d="M35.5,94h-18V76h18V94z M18,93.5h17v-17H18V93.5z"/>
	</g>
	<g>
		<path fill="#DDDDDD" d="M53,94H35V76h18V94z M35.5,93.5h17v-17h-17V93.5z"/>
	</g>
	<g>
		<path fill="#DDDDDD" d="M70.5,94H0V23.5h70.5V94z M0.5,93.5H70V24H0.5V93.5z"/>
	</g>
	<g>
		<path fill="#DDDDDD" d="M140.5,374H70V23.5h70.5V374z M70.5,373.5H140V24H70.5V373.5z"/>
	</g>
	<g>
		<path fill="#DDDDDD" d="M280.5,94H210V23.5h70.5V94z M210.5,93.5H280V24h-69.5V93.5z"/>
	</g>
	<g>
		<path fill="#DDDDDD" d="M280.5,164H0V93.5h280.5V164z M0.5,163.5H280V94H0.5V163.5z"/>
	</g>
	<g>
		<path fill="#DDDDDD" d="M280.5,304H0v-70.5h280.5V304z M0.5,303.5H280V234H0.5V303.5z"/>
	</g>
	<g>
		<path fill="#DDDDDD" d="M280.5,374H210v-70.5h70.5V374z M210.5,373.5H280V304h-69.5V373.5z"/>
	</g>
	<g>
		<path fill="#DDDDDD" d="M210.5,304H70V93.5h140.5V304z M70.5,303.5H210V94H70.5V303.5z"/>
	</g>
	<path fill="#F24747" d="M133.7,97l-61.8,30.9c-1,0.5-1.7,1.5-1.7,2.7v136.3c0,1.1,0.6,2.2,1.7,2.7l61.8,30.9c2,1,4.3-0.5,4.3-2.7
		V99.7C138.1,97.5,135.7,96,133.7,97z"/>
	<path fill="#F24747" d="M146.8,300.5l61.8-30.9c1-0.5,1.7-1.5,1.7-2.7v-66.3c0-1.1-0.6-2.2-1.7-2.7L146.8,167c-2-1-4.3,0.5-4.3,2.7
		v128.1C142.4,300,144.8,301.5,146.8,300.5z"/>
	<g>
		<path fill="#DDDDDD" d="M70.5,374H0v-70.5h70.5V374z M0.5,373.5H70V304H0.5V373.5z"/>
	</g>
	<g>
		<path fill="#DDDDDD" d="M280.5,374H0V23.5h280.5V374z M0.5,373.5H280V24H0.5V373.5z"/>
	</g>
	<g>
		<polygon fill="#0F2634" points="280.5,20.8 280,20.8 280,14 210.5,14 210.5,20.8 210,20.8 210,13.5 280.5,13.5 		"/>
	</g>
	<g>
		<polygon fill="#0F2634" points="290.5,94 283.2,94 283.2,93.5 290,93.5 290,24 283.2,24 283.2,23.5 290.5,23.5 		"/>
	</g>
	<g>
		<path fill="#0F2634" d="M297,54.5l1.8,3.1l1.8-3.1h2.1l-2.7,4.4l2.7,4.6h-2.1l-1.8-3.1l-1.8,3.1h-2.1l2.6-4.5l-2.6-4.5H297z"/>
	</g>
	<g>
		<path fill="#0F2634" d="M243.5,0l1.8,3.1L247,0h2.1l-2.7,4.4l2.7,4.6H247l-1.8-3.1L243.5,9h-2.1l2.6-4.5L241.4,0H243.5z"/>
	</g>
	<g>
		<polygon fill="#0F2634" points="140.5,100.8 140,100.8 140,94 70.5,94 70.5,100.8 70,100.8 70,93.5 140.5,93.5 		"/>
	</g>
	<g>
		<path fill="#0F2634" d="M103.5,80.3l1.8,3.1l1.8-3.1h2.1l-2.7,4.4l2.7,4.6H107l-1.8-3.1l-1.8,3.1h-2.1l2.6-4.5l-2.6-4.5H103.5z"/>
	</g>
</g>
</svg>
