<?xml version="1.0" encoding="utf-8"?>
<!-- Generator: Adobe Illustrator 18.1.1, SVG Export Plug-In . SVG Version: 6.00 Build 0)  -->
<!DOCTYPE svg PUBLIC "-//W3C//DTD SVG 1.1//EN" "http://www.w3.org/Graphics/SVG/1.1/DTD/svg11.dtd">
<svg version="1.1" id="Layer_1" xmlns="http://www.w3.org/2000/svg" xmlns:xlink="http://www.w3.org/1999/xlink" x="0px" y="0px"
	 viewBox="0 0 400 400" enable-background="new 0 0 400 400" xml:space="preserve">
<g>
	<path fill="#F24747" d="M189.4,35.6l-99.9,50c-1.6,0.8-2.7,2.5-2.7,4.3v220.3c0,1.8,1,3.5,2.7,4.3l99.9,50c3.2,1.6,7-0.7,7-4.3
		V39.9C196.5,36.3,192.7,33.9,189.4,35.6z"/>
	<path fill="#F24747" d="M210.6,364.4l99.9-50c1.6-0.8,2.7-2.5,2.7-4.3V203c0-1.8-1-3.5-2.7-4.3l-99.9-50c-3.2-1.6-7,0.7-7,4.3
		v207.1C203.5,363.7,207.3,366.1,210.6,364.4z"/>
</g>
</svg>
