<?xml version="1.0" encoding="utf-8"?>
<!-- Generator: Adobe Illustrator 18.1.1, SVG Export Plug-In . SVG Version: 6.00 Build 0)  -->
<!DOCTYPE svg PUBLIC "-//W3C//DTD SVG 1.1//EN" "http://www.w3.org/Graphics/SVG/1.1/DTD/svg11.dtd">
<svg version="1.1" id="Layer_1" xmlns="http://www.w3.org/2000/svg" xmlns:xlink="http://www.w3.org/1999/xlink" x="0px" y="0px"
	 viewBox="0 0 400 400" enable-background="new 0 0 400 400" xml:space="preserve">
<g>
	<path fill="#F24747" d="M27.3,150.9L3.7,162.7c-0.4,0.2-0.6,0.6-0.6,1v52c0,0.4,0.2,0.8,0.6,1l23.6,11.8c0.8,0.4,1.7-0.2,1.7-1
		v-75.5C29,151.1,28.1,150.5,27.3,150.9z"/>
	<path fill="#F24747" d="M32.3,228.5l23.6-11.8c0.4-0.2,0.6-0.6,0.6-1v-25.3c0-0.4-0.2-0.8-0.6-1l-23.6-11.8c-0.8-0.4-1.7,0.2-1.7,1
		v48.8C30.6,228.3,31.5,228.9,32.3,228.5z"/>
	<g>
		<path fill="#F24747" d="M98.3,176.3c7.9,0,12.2,3,12.2,10.4c0,4.8-1.5,7.2-4.7,9c3.4,1.3,5.7,3.8,5.7,9.3c0,8.2-5,11.3-12.7,11.3
			H83.2v-39.9H98.3z M89.6,181.9v11.4h8.6c4,0,5.7-2,5.7-5.9c0-3.8-2-5.5-5.9-5.5H89.6z M89.6,198.8v11.8h8.8c4,0,6.4-1.3,6.4-6.1
			c0-4.5-3.4-5.8-6.5-5.8H89.6z"/>
		<path fill="#F24747" d="M118.1,187.1h6.3v3.5c0,0,5-3.2,9.9-4.1v6.4c-5.3,1-9.8,4.6-9.8,4.6v18.8h-6.4V187.1z"/>
		<path fill="#F24747" d="M271.4,187.1h6.3v3.5c0,0,5-3.2,9.9-4.1v6.4c-5.3,1-9.8,4.6-9.8,4.6v18.8h-6.4V187.1z"/>
		<path fill="#F24747" d="M163.5,201.5c0,9.7-3,15.4-13,15.4c-10,0-13-5.7-13-15.4c0-9.4,3.3-15,13-15
			C160.2,186.5,163.5,192.1,163.5,201.5z M157,201.5c0-6.8-1.5-9.7-6.6-9.7c-5.1,0-6.6,2.9-6.6,9.7c0,6.8,1.2,10,6.6,10
			C155.9,211.5,157,208.3,157,201.5z"/>
		<path fill="#F24747" d="M173.7,187.1l4.6,23.7h1.2l5.5-23.1h6.5l5.5,23.1h1.2l4.5-23.7h6.3l-6.2,29.1h-10.1l-4.5-20l-4.5,20h-10.1
			l-6.2-29.1H173.7z"/>
		<path fill="#F24747" d="M234.7,193.1c0,0-6.9-0.9-10.4-0.9c-3.5,0-5.1,0.8-5.1,3.2c0,1.9,1.2,2.4,6.9,3.4c7,1.2,9.5,3,9.5,8.8
			c0,6.8-4.3,9.3-11.5,9.3c-4,0-10.8-1.3-10.8-1.3l0.2-5.3c0,0,7,0.9,10,0.9c4.2,0,5.8-0.9,5.8-3.4c0-2-1-2.7-6.8-3.6
			c-6.4-1-9.7-2.4-9.7-8.6c0-6.6,5.1-9,10.9-9c4.3,0,11,1.3,11,1.3L234.7,193.1z"/>
		<path fill="#F24747" d="M264.2,210.8l0.1,4.7c0,0-6.6,1.3-11.8,1.3c-8.7,0-12.1-4.7-12.1-14.9c0-10.7,4.6-15.5,12.6-15.5
			c8.2,0,12.2,4.3,12.2,13.3l-0.4,4.5h-18.1c0.1,4.7,1.8,7,6.6,7C258.1,211.4,264.2,210.8,264.2,210.8z M259.1,199.5
			c0-5.8-1.7-7.7-6-7.7c-4.3,0-6.2,2.2-6.3,7.7H259.1z"/>
		<path fill="#F24747" d="M311.8,190.7c0,0-6.2-0.9-10.1-0.9c-3.6,0-6.9,1-6.9,5c0,3,1.5,3.9,7.8,5c7.5,1.2,10.3,2.6,10.3,8.2
			c0,6.8-4.3,9-11.2,9c-3.6,0-10-1-10-1l0.2-3.1c0,0,6.5,1,9.5,1c5,0,7.9-1.2,7.9-5.7c0-3.5-1.7-4.3-8.3-5.2c-6.7-1-9.8-2.3-9.8-7.9
			c0-6.4,5.2-8.2,10.3-8.2c4.4,0,10.3,1,10.3,1L311.8,190.7z"/>
		<path fill="#F24747" d="M320.3,187.1l7.7,26.1h2.1l7.8-26.1h3.6l-12.4,42.1h-3.5l3.8-13h-4l-8.6-29.1H320.3z"/>
		<path fill="#F24747" d="M347.4,216.3v-29.1h3.4v2.2c0,0,4.9-2.7,9.5-2.7c8,0,9.7,3.7,9.7,14.4v15.3h-3.5v-15.1
			c0-8.6-0.9-11.4-6.8-11.4c-4.5,0-9,2.4-9,2.4v24.1H347.4z"/>
		<path fill="#F24747" d="M396.8,187.3l-0.2,3c0,0-4.6-0.6-6.8-0.6c-7,0-9,3.1-9,11.5c0,9.1,1.4,12.5,9,12.5c2.2,0,6.9-0.5,6.9-0.5
			l0.1,3c0,0-5.2,0.7-7.7,0.7c-9.4,0-12-4.2-12-15.7c0-10.7,3.4-14.6,12.1-14.6C391.8,186.5,396.8,187.3,396.8,187.3z"/>
	</g>
</g>
</svg>
