<!-- Generator: Adobe Illustrator 19.0.0, SVG Export Plug-In  -->
<svg version="1.1"
	 xmlns="http://www.w3.org/2000/svg" xmlns:xlink="http://www.w3.org/1999/xlink" xmlns:a="http://ns.adobe.com/AdobeSVGViewerExtensions/3.0/"
	 x="0px" y="0px" width="702.9px" height="522.5px" viewBox="0 0 702.9 522.5" enable-background="new 0 0 702.9 522.5"
	 xml:space="preserve">
<defs>
</defs>
<g id="Page-1_1_" sketch:type="MSPage">
	<g id="Home-Page_1_" transform="translate(-606.000000, -911.000000)" sketch:type="MSArtboardGroup">
		<g id="About_1_" transform="translate(137.000000, 912.000000)" sketch:type="MSLayerGroup">
			<g id="Group_1_" transform="translate(469.000000, 0.000000)" sketch:type="MSShapeGroup">
				<g id="Image_1_">
					<path id="Stroke-2_3_" fill="#FFFFFF" stroke="#E7E7E7" d="M0.5,2.5c0-1.7,1.3-3,3-3h695.4c1.7,0,3,1.4,3,3v457.4
						c0,1.7-1.3,3-3,3H3.5c-1.7,0-3-1.4-3-3V2.5z"/>
					<path id="Stroke-2-Copy_3_" fill="#E7E7E7" d="M0.5,2.5c0-1.7,1.3-3,3-3h696.4c1.7,0,3,1.3,3,3v43.9c0,1.7-1.3,3-3,3H0.5V2.5z"
						/>
					<path id="Fill-4_1_" fill="#A9A9A9" d="M35.4,25.7c0,2.5-2,4.4-4.4,4.4c-2.4,0-4.4-2-4.4-4.4c0-2.4,2-4.4,4.4-4.4
						C33.4,21.2,35.4,23.2,35.4,25.7"/>
					<path id="Fill-5_1_" fill="#A9A9A9" d="M46.5,30.1c-2.4,0-4.4-2-4.4-4.4c0-2.4,2-4.4,4.4-4.4c2.4,0,4.4,2,4.4,4.4
						C50.9,28.1,48.9,30.1,46.5,30.1z"/>
					<path id="Fill-6_1_" fill="#A9A9A9" d="M66.1,25.7c0,2.5-2,4.4-4.4,4.4c-2.4,0-4.4-2-4.4-4.4c0-2.4,2-4.4,4.4-4.4
						C64.1,21.2,66.1,23.2,66.1,25.7"/>
					<path id="Rectangle-62_3_" fill="#D8D8D8" d="M92.9,21.1h543c1.7,0,3,1.3,3,3v3c0,1.7-1.3,3-3,3h-543c-1.7,0-3-1.3-3-3v-3
						C89.9,22.4,91.2,21.1,92.9,21.1z"/>
				</g>
				<rect id="Rectangle-94_1_" x="22.9" y="128.1" fill="#F7F7F7" width="611" height="167"/>
				<rect id="Rectangle-92_1_" x="74.9" y="74.1" fill="#0F2634" width="229" height="11"/>
				<g id="Imported-Layers-Copy-8_1_" transform="translate(23.000000, 63.000000)">
					<path id="Fill-1_3_" fill="#0F2634" d="M12.9,32.6c0,0.2,0.3,0.4,0.5,0.3l9-4.9c0.1-0.1,0.2-0.2,0.2-0.3V14.5
						c0-0.1-0.1-0.2-0.2-0.3l-9-5.2c-0.2-0.1-0.5,0-0.5,0.3V32.6z"/>
					<path id="Fill-2_3_" fill="#0F2634" d="M11.6-0.5c0-0.2-0.2-0.4-0.4-0.3l-11,4C0.1,3.3,0,3.4,0,3.5v25.3c0,0.1,0.1,0.3,0.2,0.3
						l11,3.9c0.2,0.1,0.4-0.1,0.4-0.3V-0.5z"/>
				</g>
				<g id="Image-Copy_1_" transform="translate(304.000000, 118.000000)">
					<path id="Stroke-2_2_" fill="#FFFFFF" stroke="#E7E7E7" d="M0.4,2.4c0-1.7,1.4-3,3-3h282.8c1.7,0,3,1.3,3,3V400
						c0,1.7-1.4,3-3,3H3.4c-1.7,0-3-1.3-3-3V2.4z"/>
					<path id="Stroke-2-Copy_2_" fill="#E7E7E7" d="M0.4,2.4c0-1.7,1.3-3,3-3h283.2c1.7,0,3,1.3,3,3v37.4c0,1.7-1.3,3-3,3H0.4V2.4z"
						/>
					<path id="Rectangle-62_2_" fill="#D8D8D8" d="M27.1,15.6h237.4c4.4,0,8,2.9,8,6.5l0,0c0,3.6-3.6,6.5-8,6.5H27.1
						c-4.4,0-8-2.9-8-6.5l0,0C19.1,18.6,22.6,15.6,27.1,15.6z"/>
				</g>
				<rect id="Rectangle-92-Copy_1_" x="334.9" y="226.1" fill="#0F2634" width="229" height="11"/>
				<g id="Imported-Layers-Copy-10_1_" transform="translate(438.000000, 176.000000)">
					<path id="Fill-1_2_" fill="#0F2634" d="M12.9,32.6c0,0.2,0.3,0.4,0.5,0.3l9-4.9c0.1-0.1,0.2-0.2,0.2-0.3V14.5
						c0-0.1-0.1-0.2-0.2-0.3l-9-5.2c-0.2-0.1-0.5,0-0.5,0.3V32.6z"/>
					<path id="Fill-2_2_" fill="#0F2634" d="M11.6-0.5c0-0.2-0.2-0.4-0.4-0.3l-11,4C0.1,3.3,0,3.4,0,3.5v25.3c0,0.1,0.1,0.3,0.2,0.3
						l11,3.9c0.2,0.1,0.4-0.1,0.4-0.3V-0.5z"/>
				</g>
			</g>
		</g>
	</g>
</g>
</svg>
