<!-- Generator: Adobe Illustrator 18.1.1, SVG Export Plug-In  -->
<svg version="1.1"
	 xmlns="http://www.w3.org/2000/svg" xmlns:xlink="http://www.w3.org/1999/xlink" xmlns:a="http://ns.adobe.com/AdobeSVGViewerExtensions/3.0/"
	 x="0px" y="0px" width="162.8px" height="37.1px" viewBox="0 0 162.8 37.1" enable-background="new 0 0 162.8 37.1"
	 xml:space="preserve">
<defs>
</defs>
<g>
	<path fill="#CCCCCC" d="M7.7,7.7c4,0,6.2,1.6,6.2,5.3c0,2.7-1,4-2.7,4.8c1.8,0.6,3.3,1.9,3.3,4.9c0,4.4-2.5,5.8-6.4,5.8H0.2V7.7
		H7.7z M2.5,9.8v7.2h5.3c2.6,0,3.7-1.2,3.7-3.7c0-2.4-1.3-3.4-3.9-3.4H2.5z M2.5,18.9v7.5H8c2.5,0,4.2-0.8,4.2-3.9
		c0-3.2-2.7-3.6-4.3-3.6H2.5z"/>
	<path fill="#CCCCCC" d="M18.3,13.5h2.2v2c0,0,2.6-1.8,5.5-2.4v2.3c-2.8,0.6-5.5,2-5.5,2v11h-2.2V13.5z"/>
	<path fill="#CCCCCC" d="M40.6,20.8c0,5.5-1.4,8-6.4,8c-5,0-6.4-2.5-6.4-8c0-5.2,1.7-7.6,6.4-7.6C38.9,13.2,40.6,15.6,40.6,20.8z
		 M38.3,20.8c0-4.2-0.9-5.7-4.1-5.7c-3.2,0-4.1,1.5-4.1,5.7c0,4.3,0.6,6,4.1,6C37.7,26.8,38.3,25.1,38.3,20.8z"/>
	<path fill="#CCCCCC" d="M45.1,13.5l3,13h0.5l3.6-12.7h2.3l3.6,12.7h0.5l3-13h2.2l-3.6,15h-3.8l-3.2-11.7l-3.2,11.7h-3.7l-3.6-15
		H45.1z"/>
	<path fill="#CCCCCC" d="M76.8,15.7c0,0-3.3-0.5-5.2-0.5c-1.9,0-3.3,0.5-3.3,2.3c0,1.4,0.7,1.8,3.9,2.3c3.8,0.6,5.2,1.4,5.2,4.3
		c0,3.5-2.2,4.7-5.8,4.7c-1.9,0-5.3-0.6-5.3-0.6l0.1-1.9c0,0,3.4,0.5,4.9,0.5c2.5,0,3.8-0.5,3.8-2.6c0-1.6-0.8-1.9-4-2.5
		c-3.4-0.5-5-1.2-5-4.2c0-3.3,2.7-4.4,5.4-4.4c2.2,0,5.4,0.6,5.4,0.6L76.8,15.7z"/>
	<path fill="#CCCCCC" d="M91.8,26.5l0.1,1.8c0,0-3.4,0.5-5.8,0.5c-4.5,0-5.9-2.6-5.9-7.7c0-5.7,2.5-7.9,6.3-7.9c4,0,6,2.1,6,7
		l-0.1,1.7h-9.9c0,3.2,1,4.9,3.9,4.9C88.6,26.8,91.8,26.5,91.8,26.5z M90.2,20.1c0-3.7-1.1-5-3.8-5c-2.5,0-4,1.4-4,5H90.2z"/>
	<path fill="#CCCCCC" d="M95.9,13.5h2.2v2c0,0,2.6-1.8,5.5-2.4v2.3c-2.8,0.6-5.5,2-5.5,2v11h-2.2V13.5z"/>
	<path fill="#CCCCCC" d="M118.3,9.9c0,0-4.2-0.5-5.9-0.5c-2.9,0-4.5,1-4.5,3.4c0,2.7,1.4,3.1,5.1,4c4.1,0.9,6,2,6,5.6
		c0,4.6-2.5,6.4-6.6,6.4c-2.5,0-6.6-0.7-6.6-0.7l0.2-1.9c0,0,4.1,0.5,6.2,0.5c2.9,0,4.4-1.3,4.4-4.2c0-2.3-1.2-3-4.6-3.7
		c-4.3-0.9-6.5-1.9-6.5-5.9c0-4,2.6-5.6,6.7-5.6c2.5,0,6.3,0.6,6.3,0.6L118.3,9.9z"/>
	<path fill="#CCCCCC" d="M123.1,13.5l3.8,13h1l3.8-13h2.2l-6.2,21.7h-2.2l1.9-6.7h-2.2l-4.3-15H123.1z"/>
	<path fill="#CCCCCC" d="M136.7,28.5v-15h2.2v1.1c0,0,2.4-1.4,4.6-1.4c4.1,0,5.1,2,5.1,7.4v7.9h-2.2v-7.9c0-4-0.5-5.4-3.2-5.4
		c-2.2,0-4.2,1.1-4.2,1.1v12.2H136.7z"/>
	<path fill="#CCCCCC" d="M162.5,13.6l-0.1,1.8c0,0-2.4-0.3-3.5-0.3c-3.5,0-4.4,1.5-4.4,5.5c0,4.4,0.7,6.1,4.4,6.1
		c1.1,0,3.5-0.3,3.5-0.3l0.1,1.9c0,0-2.8,0.4-4.2,0.4c-4.8,0-6.2-2.2-6.2-8.1c0-5.4,1.8-7.5,6.2-7.5
		C159.8,13.2,162.5,13.6,162.5,13.6z"/>
</g>
<g>

		<rect x="80.4" y="-64.5" transform="matrix(0.2114 0.9774 -0.9774 0.2114 82.3235 -64.9156)" fill="#F24747" width="2" height="166.1"/>
</g>
</svg>
