<!-- Generator: Adobe Illustrator 18.1.1, SVG Export Plug-In  -->
<svg version="1.1"
	 xmlns="http://www.w3.org/2000/svg" xmlns:xlink="http://www.w3.org/1999/xlink" xmlns:a="http://ns.adobe.com/AdobeSVGViewerExtensions/3.0/"
	 x="0px" y="0px" width="160.1px" height="27.4px" viewBox="0 0 160.1 27.4" enable-background="new 0 0 160.1 27.4"
	 xml:space="preserve">
<defs>
</defs>
<g>
	<path fill="#6D6D6D" d="M7.5,0c4,0,6.2,1.6,6.2,5.3c0,2.7-1,4-2.7,4.8c1.8,0.6,3.3,1.9,3.3,4.9c0,4.4-2.5,5.8-6.4,5.8H0V0H7.5z
		 M2.3,2v7.2h5.3c2.6,0,3.7-1.2,3.7-3.7c0-2.4-1.3-3.4-3.9-3.4H2.3z M2.3,11.2v7.5h5.5c2.5,0,4.2-0.8,4.2-3.9c0-3.2-2.7-3.6-4.3-3.6
		H2.3z"/>
	<path fill="#6D6D6D" d="M18.1,5.8h2.2v2c0,0,2.6-1.8,5.5-2.4v2.3c-2.8,0.6-5.5,2-5.5,2v11h-2.2V5.8z"/>
	<path fill="#6D6D6D" d="M40.3,13.1c0,5.5-1.4,8-6.4,8c-5,0-6.4-2.5-6.4-8c0-5.2,1.7-7.6,6.4-7.6C38.7,5.5,40.3,7.9,40.3,13.1z
		 M38,13.1c0-4.2-0.9-5.7-4.1-5.7c-3.2,0-4.1,1.5-4.1,5.7c0,4.3,0.6,6,4.1,6C37.5,19.1,38,17.3,38,13.1z"/>
	<path fill="#6D6D6D" d="M44.9,5.8l3,13h0.5L52,6.1h2.3l3.6,12.7h0.5l3-13h2.2l-3.6,15h-3.8L53.1,9l-3.2,11.7h-3.7l-3.6-15H44.9z"/>
	<path fill="#6D6D6D" d="M76.6,7.9c0,0-3.3-0.5-5.2-0.5C69.5,7.5,68,8,68,9.7c0,1.4,0.7,1.8,3.9,2.3c3.8,0.6,5.2,1.4,5.2,4.3
		c0,3.5-2.2,4.7-5.8,4.7c-1.9,0-5.3-0.6-5.3-0.6l0.1-1.9c0,0,3.4,0.5,4.9,0.5c2.5,0,3.8-0.5,3.8-2.6c0-1.6-0.8-1.9-4-2.5
		c-3.4-0.5-5-1.2-5-4.2c0-3.3,2.7-4.4,5.4-4.4c2.2,0,5.4,0.6,5.4,0.6L76.6,7.9z"/>
	<path fill="#6D6D6D" d="M91.6,18.8l0.1,1.8c0,0-3.4,0.5-5.8,0.5c-4.5,0-5.9-2.6-5.9-7.7c0-5.7,2.5-7.9,6.3-7.9c4,0,6,2.1,6,7
		l-0.1,1.7h-9.9c0,3.2,1,4.9,3.9,4.9C88.4,19.1,91.6,18.8,91.6,18.8z M89.9,12.4c0-3.7-1.1-5-3.8-5c-2.5,0-4,1.4-4,5H89.9z"/>
	<path fill="#6D6D6D" d="M95.7,5.8h2.2v2c0,0,2.6-1.8,5.5-2.4v2.3c-2.8,0.6-5.5,2-5.5,2v11h-2.2V5.8z"/>
	<path fill="#6D6D6D" d="M116,7.9c0,0-3.3-0.5-5.2-0.5c-1.9,0-3.3,0.5-3.3,2.3c0,1.4,0.7,1.8,3.9,2.3c3.8,0.6,5.2,1.4,5.2,4.3
		c0,3.5-2.2,4.7-5.8,4.7c-1.9,0-5.3-0.6-5.3-0.6l0.1-1.9c0,0,3.4,0.5,5,0.5c2.5,0,3.8-0.5,3.8-2.6c0-1.6-0.8-1.9-4-2.5
		c-3.4-0.5-5-1.2-5-4.2c0-3.3,2.7-4.4,5.4-4.4c2.2,0,5.4,0.6,5.4,0.6L116,7.9z"/>
	<path fill="#6D6D6D" d="M120.6,5.8l3.8,13h1l3.8-13h2.2l-6.2,21.7h-2.2l1.9-6.7h-2.2l-4.3-15H120.6z"/>
	<path fill="#6D6D6D" d="M134.3,20.8v-15h2.2v1.1c0,0,2.4-1.4,4.6-1.4c4.1,0,5.1,2,5.1,7.4v7.9H144v-7.9c0-4-0.5-5.4-3.2-5.4
		c-2.2,0-4.2,1.1-4.2,1.1v12.2H134.3z"/>
	<path fill="#6D6D6D" d="M160.1,5.9L160,7.7c0,0-2.4-0.3-3.5-0.3c-3.5,0-4.4,1.5-4.4,5.5c0,4.4,0.7,6.1,4.4,6.1
		c1.1,0,3.5-0.3,3.5-0.3l0.1,1.9c0,0-2.8,0.4-4.2,0.4c-4.8,0-6.2-2.2-6.2-8.1c0-5.4,1.8-7.5,6.2-7.5C157.4,5.5,160.1,5.9,160.1,5.9z
		"/>
</g>
</svg>
