<!-- Generator: Adobe Illustrator 18.1.1, SVG Export Plug-In  -->
<svg version="1.1"
	 xmlns="http://www.w3.org/2000/svg" xmlns:xlink="http://www.w3.org/1999/xlink" xmlns:a="http://ns.adobe.com/AdobeSVGViewerExtensions/3.0/"
	 x="0px" y="0px" width="12.6px" height="8.5px" viewBox="0 0 12.6 8.5" enable-background="new 0 0 12.6 8.5" xml:space="preserve"
	>
<defs>
</defs>
<g>
	<path fill="#6D6D6D" d="M2.6,0h1.3l2.6,8.4H6L5.2,5.8h-4L0.4,8.4H0L2.6,0z M1.3,5.4h3.7l-1.5-5H2.9L1.3,5.4z"/>
	<path fill="#6D6D6D" d="M11.7,7.6c0,0.3,0.5,0.5,0.9,0.5l0,0.4c-0.5,0-1-0.1-1.2-0.5c0,0-1.2,0.5-2.4,0.5c-1,0-1.6-0.6-1.6-1.8
		c0-1,0.5-1.6,1.7-1.7l2.3-0.2V4.2c0-1-0.5-1.5-1.3-1.5S7.7,2.9,7.7,2.9l0-0.4c0,0,1.3-0.2,2.3-0.2c1.2,0,1.8,0.6,1.8,1.9V7.6z
		 M9,5.4C8.1,5.5,7.8,5.9,7.8,6.8c0,0.9,0.4,1.4,1.1,1.4c1.1,0,2.4-0.5,2.4-0.5V5.2L9,5.4z"/>
</g>
</svg>
