<!-- Generator: Adobe Illustrator 18.1.1, SVG Export Plug-In  -->
<svg version="1.1"
	 xmlns="http://www.w3.org/2000/svg" xmlns:xlink="http://www.w3.org/1999/xlink" xmlns:a="http://ns.adobe.com/AdobeSVGViewerExtensions/3.0/"
	 x="0px" y="0px" width="663.5px" height="207.5px" viewBox="0 0 663.5 207.5" enable-background="new 0 0 663.5 207.5"
	 xml:space="preserve">
<defs>
</defs>
<g>
	<g>
		<path fill="#0F2634" d="M2.1,14.3l1.8,3.1l1.8-3.1h2.1L5,18.7l2.7,4.6H5.6l-1.8-3.1l-1.8,3.1H0l2.6-4.5L0,14.3H2.1z"/>
	</g>
	<g>
		<path fill="#0F2634" d="M38.3,198.4l1.8,3.1l1.8-3.1h2.1l-2.7,4.4l2.7,4.6h-2.1l-1.8-3.1l-1.8,3.1h-2.1l2.6-4.5l-2.6-4.5H38.3z"/>
	</g>
	<g>
		<path fill="#0F2634" d="M647.8,159.7l1.8,3.1l1.8-3.1h2.1l-2.7,4.4l2.7,4.6h-2.1l-1.8-3.1l-1.8,3.1h-2.1l2.6-4.5l-2.6-4.5H647.8z"
			/>
	</g>
	<g>
		<path fill="#0F2634" d="M657.8,32.7l1.8,3.1l1.8-3.1h2.1l-2.7,4.4l2.7,4.6h-2.1l-1.8-3.1l-1.8,3.1h-2.1l2.6-4.5l-2.6-4.5H657.8z"
			/>
	</g>
	<g>
		<path fill="#DDDDDD" d="M94.8,182.6H58V0.4h36.8V182.6z M58.5,182.1h35.8V0.9H58.5V182.1z"/>
	</g>
	<g>
		<path fill="#DDDDDD" d="M167.5,37.2h-36.8V0.4h36.8V37.2z M131.2,36.7H167V0.9h-35.8V36.7z"/>
	</g>
	<g>
		<path fill="#DDDDDD" d="M631.1,37.2h-36.8V0.4h36.8V37.2z M594.8,36.7h35.8V0.9h-35.8V36.7z"/>
	</g>
	<g>
		<path fill="#DDDDDD" d="M631.1,182.6h-36.8v-36.8h36.8V182.6z M594.8,182.1h35.8v-35.8h-35.8V182.1z"/>
	</g>
	<g>
		<path fill="#DDDDDD" d="M631.1,182.6h-36.8V0.4h36.8V182.6z M594.8,182.1h35.8V0.9h-35.8V182.1z"/>
	</g>
	<g>
		<path fill="#DDDDDD" d="M594.8,37.2H167V0.4h427.8V37.2z M167.5,36.7h426.8V0.9H167.5V36.7z"/>
	</g>
	<g>
		<path fill="#DDDDDD" d="M631.1,73.6H167V36.7h464.1V73.6z M167.5,73.1h463.1V37.2H167.5V73.1z"/>
	</g>
	<g>
		<path fill="#DDDDDD" d="M594.8,182.6H167v-36.8h427.8V182.6z M167.5,182.1h426.8v-35.8H167.5V182.1z"/>
	</g>
	<g>
		<path fill="#DDDDDD" d="M167.5,73.6H21.6V36.7h145.9V73.6z M22.1,73.1H167V37.2H22.1V73.1z"/>
	</g>
	<g>
		<path fill="#DDDDDD" d="M167.5,146.3H21.6v-36.8h145.9V146.3z M22.1,145.8H167v-35.8H22.1V145.8z"/>
	</g>
	<g>
		<path fill="#DDDDDD" d="M167.5,182.6h-36.8v-36.8h36.8V182.6z M131.2,182.1H167v-35.8h-35.8V182.1z"/>
	</g>
	<g>
		<path fill="#DDDDDD" d="M131.2,146.3H58V36.7h73.2V146.3z M58.5,145.8h72.2V37.2H58.5V145.8z"/>
	</g>
	<path fill="#F24747" d="M91.2,38.7l-32.1,16c-0.5,0.3-0.9,0.8-0.9,1.4v70.8c0,0.6,0.3,1.1,0.9,1.4l32.1,16c1,0.5,2.3-0.2,2.3-1.4
		V40.1C93.4,38.9,92.2,38.2,91.2,38.7z"/>
	<path fill="#F24747" d="M98,144.3l32.1-16c0.5-0.3,0.9-0.8,0.9-1.4V92.5c0-0.6-0.3-1.1-0.9-1.4L98,75c-1-0.5-2.3,0.2-2.3,1.4v66.5
		C95.7,144.1,96.9,144.8,98,144.3z"/>
	<g>
		<path fill="#DDDDDD" d="M58.5,182.6H21.6v-36.8h36.8V182.6z M22.1,182.1H58v-35.8H22.1V182.1z"/>
	</g>
	<g>
		<path fill="#DDDDDD" d="M594.8,182.6H21.6V0.4h573.2V182.6z M22.1,182.1h572.2V0.9H22.1V182.1z"/>
	</g>
	<g>
		<polygon fill="#0F2634" points="641.1,73.2 634.8,73.2 634.8,72.7 640.6,72.7 640.6,0.5 634.8,0.5 634.8,0 641.1,0 		"/>
	</g>
	<g>
		<polygon fill="#0F2634" points="641.1,182.6 634.8,182.6 634.8,182.1 640.6,182.1 640.6,146.2 634.8,146.2 634.8,145.7
			641.1,145.7 		"/>
	</g>
	<g>
		<polygon fill="#0F2634" points="167.5,192.6 130.7,192.6 130.7,186.3 131.2,186.3 131.2,192.1 167,192.1 167,186.3 167.5,186.3
			"/>
	</g>
	<g>
		<polygon fill="#0F2634" points="58.5,192.6 21.6,192.6 21.6,186.3 22.1,186.3 22.1,192.1 58,192.1 58,186.3 58.5,186.3 		"/>
	</g>
	<g>
		<polygon fill="#0F2634" points="18,37.2 11.6,37.2 11.6,0.4 18,0.4 18,0.9 12.1,0.9 12.1,36.7 18,36.7 		"/>
	</g>
	<g>
		<path d="M647.4,41.7v-1.4l2.4-2.4c1.2-1.3,1.9-2,1.9-3c0-1.1-0.6-1.4-1.8-1.4c-1,0-2.3,0.3-2.3,0.3l-0.1-1.3c0,0,1.4-0.4,2.8-0.4
			c2.1,0,3.1,0.9,3.1,2.7c0,1.4-0.6,2.3-2.1,3.7l-2,2h4.3v1.4H647.4z"/>
	</g>
	<g>
		<path fill="#F24747" d="M187.9,73.3c10.8,0,16.6,4,16.6,14.1c0,6.6-2.1,9.8-6.4,12.2c4.7,1.8,7.8,5.2,7.8,12.6
			c0,11.1-6.7,15.4-17.3,15.4h-21.3V73.3H187.9z M176.1,80.9v15.6h11.7c5.4,0,7.8-2.7,7.8-8c0-5.2-2.7-7.5-8.1-7.5H176.1z
			 M176.1,104v16.1h12c5.5,0,8.7-1.7,8.7-8.3c0-6.2-4.6-7.9-8.9-7.9H176.1z"/>
		<path fill="#F24747" d="M214.8,88h8.6v4.8c0,0,6.7-4.4,13.5-5.6v8.6c-7.2,1.4-13.4,6.3-13.4,6.3v25.6h-8.6V88z"/>
		<path fill="#F24747" d="M423.6,88h8.6v4.8c0,0,6.7-4.4,13.5-5.6v8.6c-7.2,1.4-13.4,6.3-13.4,6.3v25.6h-8.6V88z"/>
		<path fill="#F24747" d="M276.6,107.6c0,13.2-4,20.9-17.7,20.9c-13.6,0-17.7-7.8-17.7-20.9c0-12.9,4.4-20.5,17.7-20.5
			C272.2,87.1,276.6,94.7,276.6,107.6z M267.9,107.6c0-9.2-2-13.2-9-13.2c-7,0-9,4-9,13.2s1.6,13.6,9,13.6
			C266.3,121.2,267.9,116.8,267.9,107.6z"/>
		<path fill="#F24747" d="M290.6,88l6.3,32.3h1.6l7.5-31.5h8.9l7.5,31.5h1.6l6.2-32.3h8.6l-8.4,39.7h-13.7l-6.2-27.2l-6.2,27.2
			h-13.7L282.1,88H290.6z"/>
		<path fill="#F24747" d="M373.6,96.2c0,0-9.4-1.3-14.1-1.3c-4.8,0-6.9,1.1-6.9,4.4c0,2.6,1.7,3.3,9.4,4.7c9.5,1.7,12.9,4,12.9,12
			c0,9.3-5.9,12.6-15.7,12.6c-5.5,0-14.7-1.7-14.7-1.7l0.3-7.2c0,0,9.5,1.3,13.6,1.3c5.7,0,7.9-1.2,7.9-4.7c0-2.8-1.3-3.6-9.2-4.9
			c-8.7-1.4-13.2-3.3-13.2-11.7c0-9,7-12.3,14.8-12.3c5.8,0,14.9,1.7,14.9,1.7L373.6,96.2z"/>
		<path fill="#F24747" d="M413.8,120.3l0.2,6.4c0,0-9,1.8-16,1.8c-11.9,0-16.5-6.3-16.5-20.3c0-14.5,6.3-21.1,17.2-21.1
			c11.1,0,16.7,5.8,16.7,18.2l-0.6,6.2h-24.6c0.1,6.3,2.5,9.5,9,9.5C405.4,121,413.8,120.3,413.8,120.3z M406.8,104.8
			c0-7.9-2.4-10.6-8.2-10.6c-5.9,0-8.5,2.9-8.6,10.6H406.8z"/>
		<path fill="#F24747" d="M478.7,92.8c0,0-8.5-1.3-13.7-1.3c-4.9,0-9.4,1.3-9.4,6.7c0,4.1,2,5.3,10.6,6.7c10.2,1.7,14,3.5,14,11.1
			c0,9.3-5.8,12.3-15.3,12.3c-4.8,0-13.6-1.4-13.6-1.4l0.3-4.2c0,0,8.9,1.3,12.9,1.3c6.8,0,10.8-1.6,10.8-7.8
			c0-4.8-2.4-5.8-11.3-7.1c-9.1-1.4-13.3-3.1-13.3-10.8c0-8.6,7.1-11.2,14-11.2c6,0,14,1.3,14,1.3L478.7,92.8z"/>
		<path fill="#F24747" d="M490.2,88l10.6,35.5h2.9L514.2,88h4.8l-16.9,57.3h-4.8l5.1-17.7H497L485.3,88H490.2z"/>
		<path fill="#F24747" d="M527.1,127.7V88h4.7v2.9c0,0,6.7-3.7,12.9-3.7c10.9,0,13.3,5.1,13.3,19.6v20.9h-4.8V107
			c0-11.7-1.3-15.6-9.2-15.6c-6.2,0-12.2,3.3-12.2,3.3v32.8H527.1z"/>
		<path fill="#F24747" d="M594.4,88.2l-0.2,4c0,0-6.3-0.8-9.3-0.8c-9.5,0-12.3,4.2-12.3,15.6c0,12.5,1.9,17.1,12.3,17.1
			c3,0,9.4-0.7,9.4-0.7l0.2,4c0,0-7.1,1-10.5,1c-12.9,0-16.3-5.7-16.3-21.3c0-14.5,4.6-19.9,16.4-19.9
			C587.5,87.2,594.4,88.2,594.4,88.2z"/>
	</g>
</g>
</svg>
